<?xml version="1.0" standalone="no"?><!DOCTYPE svg PUBLIC "-//W3C//DTD SVG 1.1//EN" "http://www.w3.org/Graphics/SVG/1.1/DTD/svg11.dtd"><svg t="1610444389330" class="icon" viewBox="0 0 1090 1024" version="1.1" xmlns="http://www.w3.org/2000/svg" p-id="12084" xmlns:xlink="http://www.w3.org/1999/xlink" width="212.890625" height="200"><defs><style type="text/css"></style></defs><path d="M660.975484 297.290323c11.131871 0 21.570065 5.582452 27.94529 14.93058l92.226065 135.366194a35.740903 35.740903 0 0 1-4.624516 45.65058l-210.877936 202.950194a33.461677 33.461677 0 0 1-46.641548 0L308.091871 493.237677a35.740903 35.740903 0 0 1-4.624516-45.65058L395.693419 312.220903C402.068645 302.905806 412.506839 297.290323 423.63871 297.290323h237.336774z" fill="#FFC46D" p-id="12085"></path><path d="M694.007742 330.322581c2.675613 0 5.318194 0.330323 7.89471 0.957935l79.277419 116.273549a35.740903 35.740903 0 0 1-4.624516 45.683612l-210.910968 202.950194a33.461677 33.461677 0 0 1-46.641548 0L336.136258 520.258065a35.84 35.84 0 0 1 0.330323-39.63871L428.75871 345.253161C435.100903 335.938065 445.539097 330.322581 456.670968 330.322581h237.336774z" fill="#FFC062" p-id="12086"></path><path d="M723.736774 363.354839l57.410065 84.232258a35.740903 35.740903 0 0 1-4.624516 45.65058l-210.877936 202.950194a33.461677 33.461677 0 0 1-46.641548 0l-151.485936-145.672258a35.84 35.84 0 0 1 1.981936-36.864L461.790968 378.285419C468.133161 368.970323 478.571355 363.354839 489.703226 363.354839h234.033548z" fill="#FFB64B" p-id="12087"></path><path d="M746.264774 396.387097l34.882065 51.2a35.740903 35.740903 0 0 1-4.624516 45.65058l-210.877936 202.950194a33.461677 33.461677 0 0 1-46.641548 0l-119.576774-114.952258c-4.855742-10.999742-3.963871-24.146581 3.138064-34.551742l92.226065-135.366194C501.165419 402.002581 511.603613 396.387097 522.735484 396.387097h223.52929z" fill="#FFB03B" p-id="12088"></path><path d="M768.792774 429.419355l12.354065 18.167742a35.740903 35.740903 0 0 1-4.624516 45.65058l-210.877936 202.950194a33.461677 33.461677 0 0 1-46.641548 0L431.632516 612.186839a35.84 35.84 0 0 1 3.963871-32.47071l92.226065-135.366194C534.197677 435.034839 544.635871 429.419355 555.767742 429.419355h213.025032z" fill="#FEAA2C" p-id="12089"></path><path d="M776.522323 493.237677l-210.877936 202.950194a33.461677 33.461677 0 0 1-46.641548 0l-54.965678-52.851613a35.806968 35.806968 0 0 1 4.591484-30.587871l92.226065-135.366193C567.229935 468.067097 577.668129 462.451613 588.8 462.451613h198.160516c1.618581 11.098839-1.981935 22.693161-10.438193 30.786064z" fill="#FEA41D" p-id="12090"></path><path d="M774.210065 495.483871l-208.565678 200.704a33.461677 33.461677 0 0 1-46.641548 0l-22.428904-21.504a35.773935 35.773935 0 0 1 5.086968-28.903226l92.226065-135.366193C600.262194 501.099355 610.700387 495.483871 621.832258 495.483871h152.377807z" fill="#FE9E0E" p-id="12091"></path><path d="M739.889548 528.516129l-174.245161 167.671742c-10.206968 9.810581-24.774194 11.99071-36.930064 6.573419a35.740903 35.740903 0 0 1 5.945806-23.948387L626.952258 543.44671c6.375226-9.348129 16.813419-14.930581 27.94529-14.930581h85.025033z" fill="#FE9800" p-id="12092"></path><path d="M651.693419 458.289548c6.837677-5.12 16.516129-4.294194 22.461936 2.213162 5.186065 5.714581 5.945806 14.03871 2.444387 20.48l-1.783742 2.675613-1.453419 1.585548-51.794581 49.713548-0.561548 0.660646-67.055484 64.512-1.684645 1.453419a16.68129 16.68129 0 0 1-17.242839 1.618581l-2.642581-1.651613-1.717677-1.420387L411.251613 485.243871l-1.486452-1.585548a17.870452 17.870452 0 0 1 0.660645-23.155613 16.747355 16.747355 0 0 1 19.819355-3.864775l2.642581 1.651613 1.651613 1.387355 107.718193 103.655226 55.395097-53.281032 1.651613-1.420387 50.704516-48.953807 1.651613-1.387355z" fill="#FFFFFF" p-id="12093"></path></svg>