<svg xmlns="http://www.w3.org/2000/svg" xmlns:xlink="http://www.w3.org/1999/xlink" viewBox="0 0 100 100"><defs><style>.cls-1{opacity:0.5;}.cls-2{fill:url(#Orange_Gradient);}.cls-3{fill:#fff;}.cls-4{fill:none;}</style><linearGradient id="Orange_Gradient" x1="8.5" y1="90.5" x2="90.5" y2="8.5" gradientUnits="userSpaceOnUse"><stop offset="0" stop-color="#c8511b"/><stop offset="1" stop-color="#f90"/></linearGradient></defs><title>Blockchain</title><g id="Reference"><rect class="cls-2" x="0" y="0" width="100" height="100"/><rect class="cls-4" width="100" height="100"/><g id="ICONS_-_EDIT" data-name="ICONS - EDIT"><path class="cls-3" d="M37,52.13A1.87,1.87,0,0,1,35.13,54H30.87A1.87,1.87,0,0,1,29,52.13h0V47.87A1.87,1.87,0,0,1,30.87,46h4.26A1.87,1.87,0,0,1,37,47.87h0ZM31,52h4V48H31Z"/><path class="cls-3" d="M54,52.13A1.87,1.87,0,0,1,52.13,54H47.88A1.87,1.87,0,0,1,46,52.14h0V47.86A1.87,1.87,0,0,1,47.87,46h4.26A1.87,1.87,0,0,1,54,47.87h0ZM48,52h4V48H48Z"/><path class="cls-3" d="M69.13,54H64.87A1.87,1.87,0,0,1,63,52.13V47.87A1.87,1.87,0,0,1,64.87,46h4.26A1.87,1.87,0,0,1,71,47.87h0v4.26A1.87,1.87,0,0,1,69.13,54ZM65,52h4V48H65Z"/><path class="cls-3" d="M73,58H61a2,2,0,0,1-2-2V53H58v3a2,2,0,0,1-2,2H44.06A2,2,0,0,1,42,56.06V53H41v3a2,2,0,0,1-2,2H27a2,2,0,0,1-2-2V44a2,2,0,0,1,2-2H39a2,2,0,0,1,2,2v3h1V44a2,2,0,0,1,2-2H56a2,2,0,0,1,2,2v3h1V44a2.07,2.07,0,0,1,2-2H73a2,2,0,0,1,2,2V56A2,2,0,0,1,73,58ZM61,51v5H73V44H61v5H56V44H44v5H39V44H27V56H39V51h5v5H56V51Z"/></g></g></svg>