<svg  xmlns="http://www.w3.org/2000/svg" width="35" height="35" viewBox="0 0 35 35"><g><g></g><g><g transform="translate(0.5,0.5)" style="visibility: visible;"><path d="M 2.31 1.26 L 29.61 1.26 L 29.61 28.56 L 2.31 28.56 Z" fill="none" stroke="white" stroke-width="9.3" stroke-miterlimit="10" pointer-events="stroke" visibility="hidden"></path><path d="M 2.31 1.26 L 29.61 1.26 L 29.61 28.56 L 2.31 28.56 Z" fill="none" stroke="#232f3e" stroke-width="1.3" stroke-miterlimit="10" pointer-events="all"></path><path d="M 4.56 2.71 C 4.03 2.7 3.58 3.22 3.63 3.75 C 3.28 3.84 3.06 4.22 3.14 4.57 C 3.19 4.93 3.54 5.21 3.9 5.16 C 4.68 5.16 5.47 5.17 6.26 5.16 C 6.66 5.12 6.94 4.68 6.84 4.29 C 6.79 4.02 6.55 3.78 6.27 3.74 C 6.27 3.42 5.93 3.11 5.63 3.28 C 5.45 3.44 5.42 3.03 5.25 2.97 C 5.07 2.79 4.82 2.69 4.56 2.71 Z M 4.57 2.86 C 4.97 2.84 5.32 3.16 5.44 3.53 C 5.53 3.61 5.6 3.47 5.66 3.43 C 5.93 3.27 6.13 3.61 6.14 3.84 C 6.21 3.94 6.38 3.86 6.46 3.97 C 6.76 4.18 6.78 4.68 6.48 4.91 C 6.28 5.06 6.01 4.99 5.77 5 C 5.1 5 4.42 5.01 3.75 5 C 3.4 4.95 3.19 4.55 3.32 4.24 C 3.37 4.02 3.58 3.92 3.77 3.86 C 3.82 3.7 3.75 3.51 3.85 3.36 C 3.97 3.08 4.25 2.86 4.57 2.86 Z M 2.31 6.51 C 2.31 4.76 2.31 3.01 2.31 1.26 C 4.06 1.26 5.81 1.26 7.56 1.26 C 7.56 3.01 7.56 4.76 7.56 6.51 C 5.81 6.51 4.06 6.51 2.31 6.51 Z" fill="#232f3e" stroke="none" pointer-events="all"></path></g><g style=""></g></g><g></g><g></g></g></svg>