<svg xmlns="http://www.w3.org/2000/svg" width="30" height="30" viewBox="0 0 35 35"><g><g></g><g><g transform="translate(0.5,0.5)" style="visibility: visible;"><path d="M 2.31 1.26 L 29.61 1.26 L 29.61 28.56 L 2.31 28.56 Z" fill="none" stroke="white" stroke-width="9.3" stroke-miterlimit="10" pointer-events="stroke" visibility="hidden"></path><path d="M 2.31 1.26 L 29.61 1.26 L 29.61 28.56 L 2.31 28.56 Z" fill="none" stroke="#cd2264" stroke-width="1.3" stroke-miterlimit="10" pointer-events="all"></path><path d="M 4.94 2.06 C 4.73 2.06 4.57 2.23 4.57 2.43 C 4.57 2.61 4.69 2.76 4.86 2.79 L 4.86 2.94 L 3.84 2.94 C 3.8 2.94 3.77 2.97 3.77 3.01 L 3.77 3.3 L 3.19 3.3 C 3.15 3.3 3.11 3.34 3.11 3.38 L 3.11 3.75 C 3.11 3.79 3.15 3.82 3.19 3.82 L 3.77 3.82 L 3.77 3.95 L 3.19 3.95 C 3.15 3.95 3.11 3.99 3.11 4.03 L 3.11 4.4 C 3.11 4.44 3.15 4.48 3.19 4.48 L 3.77 4.48 L 3.77 4.77 C 3.77 4.81 3.8 4.85 3.84 4.85 L 4.86 4.85 L 4.86 4.99 C 4.7 5.02 4.57 5.17 4.57 5.35 C 4.57 5.55 4.74 5.71 4.94 5.71 C 5.15 5.71 5.31 5.55 5.31 5.35 C 5.31 5.17 5.18 5.02 5.02 4.98 L 5.02 4.85 L 6.03 4.85 C 6.07 4.85 6.11 4.81 6.11 4.77 L 6.11 4.4 L 5.95 4.4 L 5.95 4.69 L 3.92 4.69 L 3.92 4.48 L 4.51 4.48 C 4.55 4.48 4.58 4.44 4.58 4.4 L 4.58 4.03 C 4.58 3.99 4.55 3.95 4.51 3.95 L 3.92 3.95 L 3.92 3.82 L 4.51 3.82 C 4.55 3.82 4.59 3.79 4.59 3.75 L 4.59 3.38 C 4.59 3.34 4.55 3.3 4.51 3.3 L 3.92 3.3 L 3.92 3.09 L 5.95 3.09 L 5.95 3.46 L 6.11 3.46 L 6.11 3.01 C 6.11 2.97 6.07 2.94 6.03 2.94 L 5.02 2.94 L 5.02 2.79 C 5.18 2.76 5.31 2.61 5.31 2.43 C 5.31 2.23 5.14 2.06 4.94 2.06 Z M 4.94 2.22 C 5.05 2.22 5.15 2.31 5.15 2.43 C 5.15 2.55 5.05 2.64 4.94 2.64 C 4.82 2.64 4.73 2.55 4.73 2.43 C 4.73 2.31 4.82 2.22 4.94 2.22 Z M 3.27 3.46 L 4.43 3.46 L 4.43 3.67 L 3.27 3.67 Z M 5.23 3.6 C 5.19 3.6 5.15 3.63 5.15 3.68 L 5.15 4.18 C 5.15 4.23 5.19 4.26 5.23 4.26 L 6.69 4.26 C 6.73 4.26 6.76 4.23 6.76 4.18 L 6.76 3.68 C 6.76 3.63 6.73 3.6 6.69 3.6 Z M 5.31 3.75 L 6.61 3.75 L 6.61 4.11 L 5.31 4.11 Z M 3.27 4.11 L 4.43 4.11 L 4.43 4.32 L 3.27 4.32 Z M 4.94 5.13 C 5.06 5.13 5.15 5.23 5.15 5.35 C 5.15 5.46 5.06 5.56 4.94 5.56 C 4.82 5.56 4.73 5.46 4.73 5.35 C 4.73 5.23 4.82 5.13 4.94 5.13 Z M 2.31 6.51 L 2.31 1.26 L 7.56 1.26 L 7.56 6.51 Z" fill="#cd2264" stroke="none" pointer-events="all"></path></g></g><g></g><g></g></g></svg>