<svg xmlns="http://www.w3.org/2000/svg" width="35" height="35" viewBox="0 0 35 35"><g><g></g><g><g transform="translate(0.5,0.5)" style="visibility: visible;"><path d="M 2.31 1.26 L 29.61 1.26 L 29.61 28.56 L 2.31 28.56 Z" fill="none" stroke="white" stroke-width="9.3" stroke-miterlimit="10" pointer-events="stroke" visibility="hidden"></path><path d="M 2.31 1.26 L 29.61 1.26 L 29.61 28.56 L 2.31 28.56 Z" fill="none" stroke="#232f3e" stroke-width="1.3" stroke-miterlimit="10" pointer-events="all"></path><path d="M 3.59 2.77 C 3.57 2.77 3.56 2.77 3.54 2.77 C 3.47 2.77 3.39 2.78 3.32 2.8 C 3.26 2.81 3.2 2.83 3.15 2.86 C 3.13 2.87 3.12 2.88 3.1 2.89 C 3.1 2.91 3.09 2.92 3.1 2.94 L 3.1 3.01 C 3.1 3.04 3.1 3.05 3.13 3.05 L 3.15 3.05 L 3.2 3.03 C 3.25 3.01 3.3 3 3.35 2.99 C 3.4 2.97 3.45 2.97 3.5 2.97 C 3.58 2.96 3.66 2.98 3.72 3.03 C 3.77 3.09 3.8 3.17 3.79 3.25 L 3.79 3.36 C 3.73 3.34 3.68 3.33 3.63 3.33 C 3.58 3.32 3.53 3.32 3.48 3.32 C 3.36 3.31 3.23 3.35 3.14 3.42 C 3.05 3.5 3.01 3.6 3.01 3.71 C 3.01 3.81 3.04 3.91 3.11 3.98 C 3.19 4.05 3.29 4.09 3.39 4.08 C 3.55 4.08 3.7 4.01 3.8 3.89 C 3.82 3.92 3.83 3.95 3.84 3.97 C 3.86 3.99 3.88 4.02 3.9 4.04 C 3.91 4.05 3.92 4.05 3.94 4.05 C 3.95 4.05 3.96 4.05 3.97 4.04 L 4.06 3.98 C 4.08 3.98 4.09 3.96 4.09 3.94 C 4.09 3.93 4.08 3.92 4.08 3.91 C 4.06 3.88 4.05 3.84 4.03 3.81 C 4.02 3.77 4.02 3.73 4.02 3.69 L 4.02 3.23 C 4.03 3.1 3.99 2.98 3.9 2.88 C 3.82 2.81 3.7 2.77 3.59 2.77 Z M 6.49 2.77 C 6.46 2.77 6.44 2.77 6.42 2.77 C 6.36 2.77 6.3 2.78 6.24 2.8 C 6.19 2.81 6.14 2.83 6.09 2.87 C 6.05 2.9 6.02 2.94 5.99 2.98 C 5.97 3.03 5.95 3.08 5.96 3.13 C 5.96 3.21 5.98 3.28 6.03 3.34 C 6.08 3.41 6.16 3.46 6.25 3.48 L 6.45 3.54 C 6.5 3.56 6.55 3.58 6.59 3.62 C 6.62 3.64 6.63 3.68 6.63 3.71 C 6.63 3.77 6.6 3.82 6.56 3.85 C 6.5 3.88 6.43 3.9 6.35 3.89 C 6.3 3.89 6.24 3.89 6.19 3.87 C 6.14 3.86 6.09 3.85 6.04 3.83 L 6 3.81 C 5.99 3.81 5.98 3.81 5.98 3.81 C 5.96 3.81 5.94 3.83 5.94 3.85 L 5.94 3.93 C 5.94 3.94 5.95 3.95 5.95 3.97 C 5.96 3.98 5.98 4 6 4 C 6.05 4.03 6.1 4.05 6.16 4.06 C 6.23 4.08 6.3 4.08 6.37 4.08 L 6.37 4.09 C 6.44 4.09 6.51 4.07 6.57 4.05 C 6.63 4.04 6.68 4.01 6.72 3.97 C 6.76 3.94 6.8 3.9 6.82 3.85 C 6.85 3.8 6.86 3.74 6.86 3.69 C 6.86 3.62 6.84 3.55 6.8 3.49 C 6.74 3.43 6.66 3.38 6.58 3.36 L 6.38 3.29 C 6.33 3.28 6.28 3.25 6.23 3.22 C 6.2 3.19 6.19 3.16 6.19 3.12 C 6.19 3.07 6.21 3.02 6.25 2.99 C 6.31 2.96 6.38 2.95 6.44 2.95 C 6.53 2.95 6.63 2.97 6.71 3.01 C 6.73 3.02 6.75 3.02 6.76 3.03 C 6.79 3.03 6.8 3.01 6.8 2.98 L 6.8 2.91 C 6.8 2.9 6.79 2.88 6.78 2.87 C 6.77 2.85 6.76 2.84 6.74 2.83 L 6.68 2.81 L 6.6 2.79 L 6.51 2.77 C 6.5 2.77 6.5 2.77 6.49 2.77 Z M 5.67 2.81 C 5.66 2.8 5.64 2.81 5.63 2.82 C 5.61 2.83 5.6 2.85 5.6 2.87 L 5.36 3.81 L 5.14 2.88 C 5.14 2.86 5.13 2.84 5.11 2.82 C 5.09 2.81 5.07 2.81 5.05 2.81 L 4.94 2.81 C 4.92 2.81 4.9 2.81 4.89 2.82 C 4.87 2.84 4.86 2.86 4.86 2.88 L 4.64 3.81 L 4.4 2.88 C 4.4 2.86 4.39 2.84 4.38 2.82 C 4.36 2.81 4.34 2.81 4.32 2.81 L 4.18 2.81 C 4.16 2.81 4.15 2.82 4.15 2.84 C 4.15 2.86 4.16 2.88 4.16 2.9 L 4.49 3.98 C 4.49 4 4.5 4.02 4.52 4.04 C 4.54 4.05 4.55 4.05 4.57 4.05 L 4.7 4.05 C 4.72 4.05 4.74 4.04 4.75 4.03 C 4.77 4.02 4.78 4 4.78 3.98 L 4.99 3.07 L 5.21 3.98 C 5.22 4 5.22 4.02 5.24 4.03 C 5.26 4.04 5.28 4.05 5.29 4.05 L 5.41 4.05 C 5.43 4.05 5.45 4.04 5.47 4.03 C 5.48 4.02 5.49 4 5.5 3.98 L 5.84 2.9 C 5.85 2.88 5.85 2.86 5.85 2.86 C 5.85 2.85 5.85 2.85 5.85 2.84 C 5.85 2.83 5.84 2.82 5.84 2.81 C 5.83 2.81 5.82 2.8 5.81 2.81 L 5.68 2.81 C 5.68 2.8 5.68 2.8 5.67 2.81 Z M 3.5 3.49 C 3.51 3.49 3.52 3.49 3.53 3.49 L 3.66 3.49 C 3.7 3.49 3.75 3.5 3.79 3.51 L 3.79 3.57 C 3.79 3.61 3.79 3.65 3.78 3.69 C 3.77 3.73 3.76 3.76 3.73 3.78 C 3.7 3.82 3.65 3.86 3.6 3.87 C 3.55 3.89 3.5 3.9 3.45 3.9 C 3.4 3.9 3.34 3.89 3.3 3.86 C 3.27 3.82 3.25 3.76 3.25 3.71 C 3.25 3.65 3.27 3.59 3.32 3.55 C 3.37 3.51 3.43 3.49 3.5 3.49 Z M 6.73 4.35 C 6.58 4.35 6.41 4.39 6.28 4.48 C 6.24 4.51 6.24 4.54 6.29 4.54 C 6.43 4.52 6.76 4.48 6.83 4.56 C 6.88 4.63 6.76 4.94 6.71 5.08 C 6.69 5.13 6.73 5.14 6.76 5.11 C 7.01 4.91 7.08 4.47 7.03 4.41 C 7 4.38 6.88 4.35 6.73 4.35 Z M 2.87 4.43 C 2.83 4.44 2.82 4.47 2.85 4.5 C 3.42 5.02 4.16 5.3 4.93 5.3 C 5.54 5.3 6.13 5.12 6.63 4.77 C 6.71 4.72 6.64 4.63 6.57 4.67 C 6.06 4.88 5.52 4.99 4.98 4.99 C 4.25 4.99 3.53 4.8 2.9 4.44 C 2.89 4.43 2.88 4.43 2.87 4.43 Z M 2.31 1.26 L 7.56 1.26 L 7.56 6.51 L 2.31 6.51 Z" fill="#232f3e" stroke="none" pointer-events="all"></path></g><g style=""></g></g><g></g><g></g></g></svg>