<svg xmlns="http://www.w3.org/2000/svg" width="30" height="30" viewBox="0 0 35 35"><g><g></g><g><g transform="translate(0.5,0.5)" style="visibility: visible;"><path d="M 2.31 1.26 L 29.61 1.26 L 29.61 28.56 L 2.31 28.56 Z" fill="none" stroke="white" stroke-width="9.3" stroke-miterlimit="10" pointer-events="stroke" visibility="hidden"></path><path d="M 2.31 1.26 L 29.61 1.26 L 29.61 28.56 L 2.31 28.56 Z" fill="none" stroke="#5a6c86" stroke-width="1.3" stroke-miterlimit="10" pointer-events="all"></path><path d="M 2.31 1.26 L 7.56 1.26 L 7.56 6.51 L 2.31 6.51 Z M 4.39 2.01 C 4.35 2.01 4.31 2.04 4.31 2.08 L 4.31 3.25 L 3.76 3.25 C 3.72 3.25 3.69 3.28 3.69 3.32 L 3.69 5.69 C 3.69 5.73 3.72 5.76 3.76 5.76 L 6.11 5.76 C 6.13 5.76 6.15 5.75 6.16 5.74 C 6.17 5.72 6.18 5.7 6.18 5.69 L 6.18 3.32 C 6.18 3.28 6.15 3.25 6.11 3.25 L 5.56 3.25 L 5.56 2.08 C 5.56 2.07 5.55 2.05 5.54 2.03 C 5.52 2.02 5.5 2.01 5.48 2.01 Z M 4.46 2.16 L 5.41 2.16 L 5.41 3.32 C 5.41 3.36 5.44 3.4 5.48 3.4 L 6.03 3.4 L 6.03 5.61 L 3.84 5.61 L 3.84 3.4 L 4.39 3.4 C 4.41 3.4 4.43 3.39 4.44 3.38 C 4.45 3.36 4.46 3.34 4.46 3.32 Z M 4.87 2.51 L 4.87 2.9 L 5.02 2.9 L 5.02 2.51 Z M 4.87 3.13 L 4.87 3.52 L 5.02 3.52 L 5.02 3.13 Z M 4.17 3.71 L 4.17 4.1 L 4.32 4.1 L 4.32 3.71 Z M 4.87 3.71 L 4.87 4.1 L 5.02 4.1 L 5.02 3.71 Z M 5.57 3.71 L 5.57 4.1 L 5.72 4.1 L 5.72 3.71 Z M 4.17 4.33 L 4.17 4.72 L 4.32 4.72 L 4.32 4.33 Z M 4.87 4.33 L 4.87 4.72 L 5.02 4.72 L 5.02 4.33 Z M 5.57 4.33 L 5.57 4.72 L 5.72 4.72 L 5.72 4.33 Z M 4.17 4.96 L 4.17 5.35 L 4.32 5.35 L 4.32 4.96 Z M 4.87 4.96 L 4.87 5.35 L 5.02 5.35 L 5.02 4.96 Z M 5.57 4.96 L 5.57 5.35 L 5.72 5.35 L 5.72 4.96 Z" fill="#5a6c86" stroke="none" pointer-events="all"></path></g></g><g></g><g></g></g></svg>