<svg xmlns="http://www.w3.org/2000/svg" width="30" height="30" viewBox="0 0 35 35"><g><g></g><g><g transform="translate(0.5,0.5)" style="visibility: visible;"><path d="M 2.31 1.26 L 29.61 1.26 L 29.61 28.56 L 2.31 28.56 Z" fill="none" stroke="white" stroke-width="9.3" stroke-miterlimit="10" pointer-events="stroke" visibility="hidden"></path><path d="M 2.31 1.26 L 29.61 1.26 L 29.61 28.56 L 2.31 28.56 Z" fill="none" stroke="#d86613" stroke-width="1.3" stroke-miterlimit="10" pointer-events="all"></path><path d="M 2.31 1.26 L 7.56 1.26 L 7.56 6.51 L 2.31 6.51 Z M 6.73 3.02 L 6.73 2.87 L 6.38 2.87 L 6.38 2.44 L 5.93 2.44 L 5.93 2.08 L 5.78 2.08 L 5.78 2.44 L 5.46 2.44 L 5.46 2.08 L 5.31 2.08 L 5.31 2.44 L 4.99 2.44 L 4.99 2.08 L 4.84 2.08 L 4.84 2.44 L 4.52 2.44 L 4.52 2.08 L 4.37 2.08 L 4.37 2.44 L 4.05 2.44 L 4.05 2.08 L 3.9 2.08 L 3.9 2.44 L 3.49 2.44 L 3.49 2.87 L 3.13 2.87 L 3.13 3.02 L 3.49 3.02 L 3.49 3.34 L 3.13 3.34 L 3.13 3.49 L 3.49 3.49 L 3.49 3.81 L 3.13 3.81 L 3.13 3.96 L 3.49 3.96 L 3.49 4.28 L 3.13 4.28 L 3.13 4.43 L 3.49 4.43 L 3.49 4.75 L 3.13 4.75 L 3.13 4.9 L 3.49 4.9 L 3.49 5.33 L 3.9 5.33 L 3.9 5.69 L 4.05 5.69 L 4.05 5.33 L 4.37 5.33 L 4.37 5.69 L 4.52 5.69 L 4.52 5.33 L 4.84 5.33 L 4.84 5.69 L 4.99 5.69 L 4.99 5.33 L 5.31 5.33 L 5.31 5.69 L 5.46 5.69 L 5.46 5.33 L 5.78 5.33 L 5.78 5.69 L 5.93 5.69 L 5.93 5.33 L 6.38 5.33 L 6.38 4.9 L 6.73 4.9 L 6.73 4.75 L 6.38 4.75 L 6.38 4.43 L 6.73 4.43 L 6.73 4.28 L 6.38 4.28 L 6.38 3.96 L 6.73 3.96 L 6.73 3.81 L 6.38 3.81 L 6.38 3.49 L 6.73 3.49 L 6.73 3.34 L 6.38 3.34 L 6.38 3.02 Z M 6.23 5.18 L 3.64 5.18 L 3.64 2.59 L 6.23 2.59 Z" fill="#d86613" stroke="none" pointer-events="all"></path></g></g><g></g><g></g></g></svg>