<svg xmlns="http://www.w3.org/2000/svg" width="30" height="30" viewBox="0 0 35 35"><g><g></g><g><g transform="translate(0.5,0.5)" style="visibility: visible;"><path d="M 2.31 1.26 L 29.61 1.26 L 29.61 28.56 L 2.31 28.56 Z" fill="none" stroke="white" stroke-width="9.3" stroke-miterlimit="10" pointer-events="stroke" visibility="hidden"></path><path d="M 2.31 1.26 L 29.61 1.26 L 29.61 28.56 L 2.31 28.56 Z" fill="none" stroke="#d86613" stroke-width="1.3" stroke-miterlimit="10" pointer-events="all"></path><path d="M 2.31 1.26 L 7.56 1.26 L 7.56 6.51 L 2.31 6.51 Z M 4.61 2.37 C 4.55 2.37 4.48 2.37 4.42 2.38 C 4.42 2.38 4.42 2.38 4.42 2.38 C 3.96 2.49 3.69 2.86 3.7 3.29 C 3.46 3.37 3.26 3.58 3.26 3.88 C 3.26 4.22 3.53 4.53 3.88 4.53 L 4 4.53 L 4 4.4 L 3.88 4.39 C 3.88 4.39 3.88 4.39 3.88 4.39 C 3.61 4.39 3.39 4.15 3.39 3.88 C 3.39 3.62 3.56 3.46 3.79 3.39 C 3.82 3.39 3.84 3.36 3.83 3.32 C 3.8 2.93 4.03 2.61 4.45 2.51 C 4.88 2.43 5.22 2.73 5.34 3.07 C 5.34 3.09 5.36 3.11 5.39 3.11 C 5.41 3.12 5.44 3.11 5.45 3.09 C 5.49 3.04 5.54 3 5.59 2.98 C 5.64 2.97 5.7 2.96 5.79 2.99 C 5.88 3.04 5.96 3.17 5.98 3.33 C 5.98 3.36 6 3.38 6.03 3.39 C 6.18 3.42 6.3 3.48 6.38 3.57 C 6.46 3.66 6.51 3.78 6.49 3.94 C 6.49 3.94 6.49 3.94 6.49 3.94 C 6.48 4.11 6.42 4.22 6.32 4.29 C 6.22 4.36 6.09 4.39 5.96 4.39 L 5.96 4.53 C 6.11 4.53 6.27 4.49 6.4 4.4 C 6.52 4.3 6.61 4.15 6.63 3.95 C 6.64 3.76 6.59 3.6 6.48 3.49 C 6.39 3.38 6.25 3.31 6.1 3.28 C 6.07 3.1 5.98 2.94 5.84 2.87 C 5.84 2.87 5.83 2.87 5.83 2.87 C 5.73 2.83 5.63 2.83 5.55 2.86 C 5.5 2.88 5.46 2.9 5.42 2.94 C 5.28 2.63 4.99 2.37 4.61 2.37 Z M 4.88 2.98 C 4.68 2.98 4.51 3.15 4.51 3.35 C 4.51 3.53 4.64 3.68 4.81 3.71 L 4.81 4.53 L 4.41 4.53 L 4.41 4.4 C 4.57 4.36 4.7 4.21 4.7 4.04 C 4.7 3.84 4.54 3.67 4.33 3.67 C 4.13 3.67 3.97 3.84 3.97 4.04 C 3.97 4.22 4.1 4.37 4.27 4.4 L 4.27 4.59 C 4.27 4.61 4.28 4.63 4.29 4.64 C 4.31 4.65 4.32 4.66 4.34 4.66 L 4.81 4.66 L 4.81 5.39 L 4.94 5.39 L 4.94 5 L 5.42 5 C 5.45 5 5.48 4.97 5.48 4.93 L 5.48 4.57 C 5.65 4.54 5.78 4.39 5.78 4.21 C 5.78 4.01 5.62 3.84 5.42 3.84 C 5.22 3.84 5.05 4.01 5.05 4.21 C 5.05 4.39 5.18 4.54 5.35 4.57 L 5.35 4.87 L 4.94 4.87 L 4.94 3.71 C 5.11 3.68 5.24 3.53 5.24 3.35 C 5.24 3.15 5.08 2.98 4.88 2.98 Z M 4.88 3.12 C 5.01 3.12 5.11 3.22 5.11 3.35 C 5.11 3.48 5.01 3.59 4.88 3.59 C 4.75 3.59 4.64 3.48 4.64 3.35 C 4.64 3.22 4.75 3.12 4.88 3.12 Z M 4.33 3.8 C 4.46 3.8 4.57 3.91 4.57 4.04 C 4.57 4.17 4.46 4.27 4.33 4.27 C 4.2 4.27 4.1 4.17 4.1 4.04 C 4.1 3.91 4.2 3.8 4.33 3.8 Z M 5.42 3.97 C 5.55 3.97 5.65 4.08 5.65 4.21 C 5.65 4.34 5.55 4.44 5.42 4.44 C 5.29 4.44 5.18 4.34 5.18 4.21 C 5.18 4.08 5.29 3.97 5.42 3.97 Z" fill="#d86613" stroke="none" pointer-events="all"></path></g></g><g></g><g></g></g></svg>