<svg xmlns="http://www.w3.org/2000/svg" width="35" height="35" viewBox="0 0 35 35"><g><g></g><g><g transform="translate(0.5,0.5)" style="visibility: visible;"><path d="M 2.31 1.26 L 29.61 1.26 L 29.61 28.56 L 2.31 28.56 Z" fill="none" stroke="white" stroke-width="9.3" stroke-miterlimit="10" pointer-events="stroke" visibility="hidden"></path><path d="M 2.31 1.26 L 29.61 1.26 L 29.61 28.56 L 2.31 28.56 Z" fill="none" stroke="#147eba" stroke-width="1.3" stroke-miterlimit="10" pointer-events="all"></path><path d="M 4 1.99 C 3.88 1.99 3.78 2.09 3.78 2.21 C 3.78 2.31 3.84 2.39 3.93 2.42 L 3.93 5.63 L 3.56 5.63 L 3.56 5.79 L 4.44 5.79 L 4.44 5.63 L 4.09 5.63 L 4.09 3.94 L 6.48 3.94 L 5.92 3.27 L 6.47 2.59 L 4.09 2.59 L 4.09 2.42 C 4.17 2.38 4.22 2.3 4.22 2.21 C 4.22 2.09 4.12 1.99 4 1.99 Z M 4 2.15 C 4.04 2.15 4.07 2.17 4.07 2.21 C 4.07 2.25 4.04 2.28 4 2.28 C 3.96 2.28 3.94 2.25 3.94 2.21 C 3.94 2.17 3.96 2.15 4 2.15 Z M 4.09 2.75 L 6.14 2.75 L 5.72 3.28 L 6.14 3.78 L 4.09 3.78 Z M 2.31 6.51 L 2.31 1.26 L 7.56 1.26 L 7.56 6.51 Z" fill="#147eba" stroke="none" pointer-events="all"></path></g></g><g></g><g></g></g></svg>