<svg xmlns="http://www.w3.org/2000/svg" width="30" height="30" viewBox="0 0 35 35"><g><g></g><g><g transform="translate(0.5,0.5)" style="visibility: visible;"><path d="M 2.31 1.26 L 29.61 1.26 L 29.61 28.56 L 2.31 28.56 Z" fill="none" stroke="white" stroke-width="9.3" stroke-miterlimit="10" pointer-events="stroke" visibility="hidden"></path><path d="M 2.31 1.26 L 29.61 1.26 L 29.61 28.56 L 2.31 28.56 Z" fill="none" stroke="#5a6c86" stroke-width="1.3" stroke-miterlimit="10" pointer-events="all"></path><path d="M 4.2 3.85 L 4.2 4.01 L 5.67 4.01 L 5.67 3.85 Z M 4.2 3.21 L 4.2 3.37 L 5.67 3.37 L 5.67 3.21 Z M 4.2 2.57 L 4.2 2.73 L 5.67 2.73 L 5.67 2.57 Z M 3.91 2.04 C 3.87 2.04 3.84 2.08 3.84 2.12 L 3.84 5.77 C 3.84 5.82 3.87 5.85 3.91 5.85 L 5.96 5.85 C 6 5.85 6.04 5.82 6.04 5.77 L 6.04 2.12 C 6.04 2.08 6 2.04 5.96 2.04 Z M 3.99 2.2 L 5.88 2.2 L 5.88 5.7 L 3.99 5.7 Z M 2.31 6.51 L 2.31 1.26 L 7.56 1.26 L 7.56 6.51 Z" fill="#5a6c86" stroke="none" pointer-events="all"></path></g></g><g></g><g></g></g></svg>