<svg xmlns="http://www.w3.org/2000/svg" width="30" height="30" viewBox="0 0 35 35"><g><g></g><g><g transform="translate(0.5,0.5)" style="visibility: visible;"><path d="M 2.31 1.26 L 29.61 1.26 L 29.61 28.56 L 2.31 28.56 Z" fill="none" stroke="white" stroke-width="9.3" stroke-miterlimit="10" pointer-events="stroke" visibility="hidden"></path><path d="M 2.31 1.26 L 29.61 1.26 L 29.61 28.56 L 2.31 28.56 Z" fill="none" stroke="#d86613" stroke-width="1.3" stroke-miterlimit="10" pointer-events="all"></path><path d="M 4.86 4.47 L 4.86 4.7 L 4.15 4.7 L 4.15 3.97 L 4.36 3.97 L 4.36 3.82 L 4.07 3.82 C 4.03 3.82 3.99 3.85 3.99 3.9 L 3.99 4.77 C 3.99 4.82 4.03 4.85 4.07 4.85 L 4.94 4.85 C 4.98 4.85 5.02 4.82 5.02 4.77 L 5.02 4.47 Z M 4.51 3.37 C 4.46 3.37 4.43 3.41 4.43 3.45 L 4.43 4.33 C 4.43 4.37 4.46 4.41 4.51 4.41 L 5.37 4.41 C 5.42 4.41 5.45 4.37 5.45 4.33 L 5.45 3.45 C 5.45 3.41 5.42 3.37 5.37 3.37 Z M 4.58 3.53 L 5.29 3.53 L 5.29 4.25 L 4.58 4.25 Z M 5.53 3.97 L 5.81 3.97 C 5.85 3.97 5.89 3.94 5.89 3.9 L 5.89 3.02 C 5.89 2.97 5.85 2.94 5.81 2.94 L 4.94 2.94 C 4.9 2.94 4.86 2.97 4.86 3.02 L 4.86 3.3 L 5.02 3.3 L 5.02 3.1 L 5.73 3.1 L 5.73 3.82 L 5.53 3.82 Z M 4.86 2.06 L 4.86 2.21 C 4.52 2.23 4.21 2.34 3.95 2.53 L 4.04 2.66 C 4.27 2.49 4.56 2.38 4.86 2.37 L 4.86 2.5 L 5.02 2.5 L 5.02 2.37 C 5.32 2.39 5.6 2.49 5.83 2.66 L 5.93 2.53 C 5.67 2.34 5.36 2.23 5.02 2.21 L 5.02 2.06 Z M 6.42 2.3 L 5.91 2.81 L 6.02 2.92 L 6.53 2.41 Z M 3.46 2.3 L 3.35 2.41 L 4.29 3.36 L 4.41 3.25 Z M 6.3 2.9 L 6.17 3 C 6.34 3.23 6.44 3.51 6.46 3.81 L 6.32 3.81 L 6.32 3.97 L 6.46 3.97 C 6.45 4.27 6.34 4.55 6.18 4.79 L 6.3 4.88 C 6.49 4.62 6.6 4.31 6.62 3.97 L 6.77 3.97 L 6.77 3.81 L 6.62 3.81 C 6.6 3.47 6.48 3.16 6.3 2.9 Z M 3.57 2.91 C 3.38 3.16 3.27 3.48 3.25 3.81 L 3.11 3.81 L 3.11 3.97 L 3.25 3.97 C 3.27 4.31 3.38 4.62 3.57 4.88 L 3.7 4.79 C 3.53 4.56 3.43 4.28 3.41 3.97 L 3.55 3.97 L 3.55 3.81 L 3.41 3.81 C 3.43 3.51 3.53 3.23 3.7 3 Z M 5.58 4.43 L 5.47 4.54 L 6.42 5.48 L 6.53 5.37 Z M 3.86 4.86 L 3.34 5.37 L 3.46 5.48 L 3.97 4.97 Z M 4.04 5.13 L 3.94 5.25 C 4.2 5.44 4.52 5.56 4.86 5.58 L 4.86 5.72 L 5.02 5.72 L 5.02 5.58 C 5.36 5.56 5.67 5.44 5.92 5.26 L 5.83 5.13 C 5.6 5.3 5.32 5.4 5.02 5.42 L 5.02 5.28 L 4.86 5.28 L 4.86 5.42 C 4.55 5.4 4.27 5.3 4.04 5.13 Z M 2.31 6.51 L 2.31 1.26 L 7.56 1.26 L 7.56 6.51 Z" fill="#d86613" stroke="none" pointer-events="all"></path></g></g><g></g><g></g></g></svg>