<svg xmlns="http://www.w3.org/2000/svg" width="35" height="35" viewBox="0 0 35 35"><g><g></g><g><g transform="translate(0.5,0.5)" style="visibility: visible;"><path d="M 2.31 1.26 L 29.61 1.26 L 29.61 28.56 L 2.31 28.56 Z" fill="none" stroke="white" stroke-width="9.3" stroke-miterlimit="10" pointer-events="stroke" visibility="hidden"></path><path d="M 2.31 1.26 L 29.61 1.26 L 29.61 28.56 L 2.31 28.56 Z" fill="none" stroke="#248814" stroke-width="1.3" stroke-miterlimit="10" pointer-events="all"></path><path d="M 4.53 2.66 C 4.52 2.66 4.51 2.66 4.5 2.66 L 4.5 2.66 C 4.22 2.66 4 2.78 3.81 2.99 C 3.81 2.99 3.81 2.99 3.81 2.99 C 3.61 3.23 3.54 3.47 3.56 3.72 C 3.32 3.79 3.17 3.97 3.1 4.15 C 3.1 4.15 3.1 4.15 3.1 4.15 C 3.01 4.42 3.08 4.7 3.2 4.86 C 3.2 4.87 3.2 4.87 3.2 4.87 C 3.35 5.05 3.56 5.15 3.78 5.15 L 6.12 5.15 C 6.34 5.15 6.53 5.07 6.68 4.91 C 6.77 4.82 6.82 4.68 6.84 4.53 C 6.86 4.39 6.85 4.23 6.79 4.1 C 6.79 4.1 6.79 4.1 6.78 4.1 C 6.68 3.91 6.5 3.74 6.25 3.71 C 6.25 3.53 6.15 3.36 6.02 3.27 C 6.02 3.27 6.02 3.26 6.02 3.26 C 5.88 3.19 5.75 3.18 5.65 3.21 C 5.59 3.23 5.54 3.27 5.49 3.31 C 5.36 3.02 5.13 2.77 4.79 2.69 C 4.79 2.69 4.79 2.69 4.79 2.69 C 4.7 2.67 4.61 2.66 4.53 2.66 Z M 4.5 2.81 C 4.58 2.81 4.66 2.82 4.75 2.84 C 5.07 2.92 5.28 3.16 5.39 3.46 C 5.4 3.49 5.42 3.5 5.45 3.51 C 5.47 3.52 5.5 3.51 5.52 3.49 C 5.57 3.43 5.63 3.38 5.7 3.36 C 5.76 3.34 5.83 3.34 5.93 3.4 C 6.02 3.46 6.11 3.63 6.1 3.76 C 6.09 3.78 6.1 3.8 6.11 3.82 C 6.13 3.84 6.15 3.85 6.17 3.85 C 6.4 3.85 6.54 4 6.65 4.17 C 6.69 4.26 6.7 4.39 6.69 4.51 C 6.67 4.64 6.62 4.74 6.57 4.8 C 6.57 4.8 6.57 4.8 6.56 4.8 C 6.44 4.94 6.31 4.99 6.12 4.99 L 3.78 4.99 C 3.61 4.99 3.44 4.92 3.33 4.77 C 3.24 4.65 3.18 4.41 3.25 4.2 C 3.32 4.05 3.43 3.89 3.66 3.85 C 3.7 3.85 3.72 3.81 3.72 3.77 C 3.69 3.53 3.74 3.32 3.93 3.1 C 4.09 2.91 4.27 2.81 4.5 2.81 Z M 4.87 3.51 C 4.78 3.51 4.7 3.56 4.65 3.61 C 4.59 3.67 4.54 3.75 4.54 3.83 L 4.54 3.93 L 4.44 3.93 C 4.4 3.93 4.36 3.96 4.36 4.01 L 4.36 4.56 C 4.36 4.58 4.37 4.6 4.38 4.61 C 4.4 4.63 4.42 4.63 4.44 4.63 L 5.28 4.63 C 5.3 4.63 5.32 4.63 5.34 4.61 C 5.35 4.6 5.36 4.58 5.36 4.56 L 5.36 4.01 C 5.36 3.96 5.33 3.93 5.28 3.93 L 5.18 3.93 L 5.18 3.83 C 5.18 3.75 5.14 3.67 5.08 3.61 C 5.03 3.55 4.96 3.51 4.87 3.51 Z M 4.87 3.66 C 4.89 3.66 4.94 3.68 4.97 3.72 C 5 3.76 5.03 3.8 5.03 3.83 L 5.03 3.93 L 4.7 3.93 L 4.7 3.83 C 4.7 3.81 4.72 3.76 4.76 3.72 C 4.8 3.69 4.84 3.66 4.87 3.66 Z M 4.52 4.09 L 5.2 4.09 L 5.2 4.48 L 4.52 4.48 Z M 2.31 6.51 L 2.31 1.26 L 7.56 1.26 L 7.56 6.51 Z" fill="#248814" stroke="none" pointer-events="all"></path></g></g><g></g><g></g></g></svg>