<svg xmlns="http://www.w3.org/2000/svg" width="30" height="30" viewBox="0 0 35 35"><g><g></g><g><g transform="translate(0.5,0.5)" style="visibility: visible;"><path d="M 2.31 1.26 L 29.61 1.26 L 29.61 28.56 L 2.31 28.56 Z" fill="#e9f3e6" stroke="none" pointer-events="all"></path><path d="M 2.31 1.26 L 7.56 1.26 L 7.56 6.51 L 2.31 6.51 Z M 4.94 1.94 C 4.7 1.93 4.48 2.02 4.3 2.18 C 4.13 2.33 4.03 2.55 4.03 2.78 L 4.03 3.31 L 3.55 3.31 C 3.53 3.31 3.51 3.32 3.49 3.34 C 3.48 3.35 3.47 3.37 3.47 3.39 L 3.47 5.76 C 3.47 5.8 3.51 5.83 3.55 5.83 L 6.32 5.83 C 6.36 5.83 6.4 5.8 6.4 5.76 L 6.4 3.39 C 6.4 3.37 6.39 3.35 6.38 3.34 C 6.36 3.32 6.34 3.32 6.32 3.32 L 5.84 3.32 L 5.84 2.79 C 5.84 2.56 5.74 2.35 5.58 2.19 C 5.41 2.03 5.18 1.94 4.94 1.94 Z M 4.94 2.08 C 5.14 2.08 5.33 2.16 5.47 2.29 C 5.61 2.42 5.69 2.6 5.69 2.79 L 5.69 3.32 L 4.17 3.32 L 4.18 2.78 C 4.18 2.6 4.26 2.42 4.4 2.29 C 4.55 2.16 4.74 2.08 4.94 2.08 Z M 3.62 3.46 L 6.25 3.46 L 6.25 5.69 L 3.62 5.69 Z M 4.94 3.94 C 4.72 3.93 4.54 4.1 4.52 4.31 C 4.5 4.53 4.65 4.72 4.86 4.76 L 4.86 5.34 L 5.01 5.34 L 5.01 4.76 C 5.21 4.72 5.35 4.55 5.35 4.35 C 5.35 4.12 5.17 3.94 4.94 3.94 Z M 4.91 4.09 C 4.92 4.09 4.93 4.09 4.94 4.09 C 5.01 4.09 5.07 4.11 5.12 4.16 C 5.17 4.21 5.2 4.28 5.2 4.35 C 5.2 4.42 5.17 4.49 5.12 4.54 C 5.07 4.59 5.01 4.62 4.94 4.62 C 4.84 4.63 4.74 4.58 4.69 4.5 C 4.63 4.42 4.63 4.31 4.68 4.22 C 4.72 4.14 4.81 4.08 4.91 4.09 Z" fill="#248814" stroke="none" pointer-events="all"></path></g></g><g></g><g></g></g></svg>