<svg xmlns="http://www.w3.org/2000/svg" xmlns:xlink="http://www.w3.org/1999/xlink" viewBox="0 0 100 100"><defs><style>.cls-1{opacity:0.5;}.cls-2{fill:url(#Blue_Gradient);}.cls-3{fill:#fff;}.cls-4{fill:none;}</style><linearGradient id="Blue_Gradient" x1="8.5" y1="90.5" x2="90.5" y2="8.5" gradientUnits="userSpaceOnUse"><stop offset="0" stop-color="#2e27ad"/><stop offset="1" stop-color="#527fff"/></linearGradient></defs><title>Database</title><g id="Working"><rect class="cls-2" x="0" y="0" width="100" height="100"/><rect class="cls-4" width="100" height="100"/><path class="cls-3" d="M51,22c-10,0-17.63,3.21-17.63,7.48v37C33.37,70.79,41,74,51,74s17.62-3.21,17.62-7.48v-37C68.62,25.21,61.05,22,51,22Zm0,2c9.21,0,15.62,2.89,15.62,5.48S60.21,35,51,35s-15.63-2.88-15.63-5.47S41.79,24,51,24Zm0,48c-9.21,0-15.63-2.89-15.63-5.48v-7.8C38.26,61.09,44,62.64,51,62.64s12.73-1.55,15.62-3.92v7.8C66.62,69.11,60.21,72,51,72Zm0-11.36c-9.21,0-15.63-2.89-15.63-5.48V46C38.26,48.36,44,49.91,51,49.91S63.73,48.36,66.62,46v9.16C66.62,57.75,60.21,60.64,51,60.64Zm0-12.73c-9.21,0-15.63-2.89-15.63-5.48V33C38.26,35.41,44,37,51,37S63.73,35.41,66.62,33v9.39C66.62,45,60.21,47.91,51,47.91Z"/></g></svg>