<?xml version="1.0" encoding="utf-8"?>
<!-- Generator: Adobe Illustrator 15.0.0, SVG Export Plug-In . SVG Version: 6.00 Build 0)  -->
<!DOCTYPE svg PUBLIC "-//W3C//DTD SVG 1.1//EN" "http://www.w3.org/Graphics/SVG/1.1/DTD/svg11.dtd">
<svg version="1.1" id="图层_1" xmlns="http://www.w3.org/2000/svg" xmlns:xlink="http://www.w3.org/1999/xlink" x="0px" y="0px"
	 width="22px" height="18px" viewBox="5 7 22 18" enable-background="new 5 7 22 18" xml:space="preserve">
<path d="M12,7v2h-1.313L5,11.656V25h22V9h-7V7H12z M6,8v2.406l3-1.344V8H6z M16,11.438c3.223,0,5.828,2.605,5.828,5.828
	S19.223,23.094,16,23.094c-3.222,0-5.828-2.605-5.828-5.828S12.778,11.438,16,11.438z M16,13.047c-2.313,0-4.188,1.875-4.188,4.188
	s1.875,4.188,4.188,4.188c2.313,0,4.188-1.876,4.188-4.188S18.313,13.047,16,13.047z"/>
</svg>
