<?xml version="1.0" encoding="utf-8"?>
<!-- Generator: Adobe Illustrator 15.0.0, SVG Export Plug-In . SVG Version: 6.00 Build 0)  -->
<!DOCTYPE svg PUBLIC "-//W3C//DTD SVG 1.1//EN" "http://www.w3.org/Graphics/SVG/1.1/DTD/svg11.dtd">
<svg version="1.1" id="图层_1" xmlns="http://www.w3.org/2000/svg" xmlns:xlink="http://www.w3.org/1999/xlink" x="0px" y="0px"
	 width="22px" height="22px" viewBox="5 5 22 22" enable-background="new 5 5 22 22" xml:space="preserve">
<path d="M9,5v2H6.063H5v1.063V27h1.063H27v-1.063V8.063V7h-1.063H23V5h-3v2h-8V5H9z M6.563,8.563H9V10h3V8.563h8V10h3V8.563h2.438
	v16.875H6.563V8.563z M12.719,11.813v2.781h2.813v-2.781H12.719z M16.469,11.813v2.781h2.813v-2.781H16.469z M20.188,11.813v2.781
	H23v-2.781H20.188z M9,16v2.813h2.813V16H9z M12.719,16v2.813h2.813V16H12.719z M16.469,16v2.813h2.813V16H16.469z M20.188,16v2.813
	H23V16H20.188z M9,20.188V23h2.813v-2.813H9L9,20.188z M12.719,20.188V23h2.813v-2.813H12.719L12.719,20.188z M16.469,20.188V23
	h2.813v-2.813H16.469L16.469,20.188z"/>
</svg>
