<?xml version="1.0" encoding="utf-8"?>
<!-- Generator: Adobe Illustrator 15.0.0, SVG Export Plug-In . SVG Version: 6.00 Build 0)  -->
<!DOCTYPE svg PUBLIC "-//W3C//DTD SVG 1.1//EN" "http://www.w3.org/Graphics/SVG/1.1/DTD/svg11.dtd">
<svg version="1.1" id="图层_1" xmlns="http://www.w3.org/2000/svg" xmlns:xlink="http://www.w3.org/1999/xlink" x="0px" y="0px"
	 width="22px" height="21.968px" viewBox="5 5 22 21.968" enable-background="new 5 5 22 21.968" xml:space="preserve">
<path d="M16,5C9.933,5,5,9.933,5,16c0,6.066,4.933,10.968,11,10.968c6.066,0,11-4.901,11-10.968C27,9.933,22.066,5,16,5z M16,7.271
	c4.814,0,8.729,3.915,8.729,8.729c0,4.814-3.914,8.729-8.729,8.729c-4.814,0-8.729-3.914-8.729-8.729
	C7.271,11.186,11.186,7.271,16,7.271z M14.817,8.837L14.465,16l5.532,5.532l0.959-0.8l-4.508-5.404L16.16,8.837H14.817L14.817,8.837
	z"/>
</svg>
