<?xml version="1.0" encoding="utf-8"?>
<!-- Generator: Adobe Illustrator 15.0.0, SVG Export Plug-In . SVG Version: 6.00 Build 0)  -->
<!DOCTYPE svg PUBLIC "-//W3C//DTD SVG 1.1//EN" "http://www.w3.org/Graphics/SVG/1.1/DTD/svg11.dtd">
<svg version="1.1" id="图层_1" xmlns="http://www.w3.org/2000/svg" xmlns:xlink="http://www.w3.org/1999/xlink" x="0px" y="0px"
	 width="24px" height="12.882px" viewBox="4 10 24 12.882" enable-background="new 4 10 24 12.882" xml:space="preserve">
<path d="M13.863,10c-3.337,0-6.044,2.641-6.171,5.947c-0.074-0.01-0.138-0.011-0.213-0.011C5.561,15.936,4,17.484,4,19.402
	s1.561,3.479,3.479,3.479H25.79c1.224,0,2.211-0.999,2.21-2.222c0-1.223-0.986-2.199-2.21-2.199c-0.122,0-0.231,0.014-0.349,0.033
	c0-0.021,0-0.049,0-0.067c0-2.321-1.887-4.197-4.207-4.197c-0.502,0-0.979,0.086-1.426,0.248C19.066,11.89,16.688,10,13.863,10
	L13.863,10z"/>
</svg>
