<?xml version="1.0" encoding="utf-8"?>
<!-- Generator: Adobe Illustrator 15.0.0, SVG Export Plug-In . SVG Version: 6.00 Build 0)  -->
<!DOCTYPE svg PUBLIC "-//W3C//DTD SVG 1.1//EN" "http://www.w3.org/Graphics/SVG/1.1/DTD/svg11.dtd">
<svg version="1.1" id="图层_1" xmlns="http://www.w3.org/2000/svg" xmlns:xlink="http://www.w3.org/1999/xlink" x="0px" y="0px"
	 width="20px" height="20px" viewBox="5.999 6 20 20" enable-background="new 5.999 6 20 20" xml:space="preserve">
<path d="M5.999,6v20h20V6H5.999z M8.104,8.105c8.721,0,15.791,7.069,15.791,15.79l0,0h-2.633c0-0.056,0-0.109,0-0.164
	c0-7.211-5.782-12.995-12.993-12.994c-0.056,0-0.11,0-0.165,0V8.105z M8.104,13.418c5.78-0.006,10.471,4.675,10.478,10.455
	c0,0.008,0,0.016,0,0.021h-2.583c0-0.043,0-0.088,0-0.131c0-4.313-3.45-7.765-7.763-7.765c-0.044,0-0.088,0-0.132,0V13.418z
	 M10.292,19.553c1.196,0,2.154,0.959,2.154,2.154c0.001,1.195-0.958,2.188-2.154,2.188s-2.188-0.99-2.188-2.188
	C8.104,20.512,9.096,19.553,10.292,19.553z"/>
</svg>
