<?xml version="1.0" encoding="utf-8"?>
<!-- Generator: Adobe Illustrator 15.0.0, SVG Export Plug-In . SVG Version: 6.00 Build 0)  -->
<!DOCTYPE svg PUBLIC "-//W3C//DTD SVG 1.1//EN" "http://www.w3.org/Graphics/SVG/1.1/DTD/svg11.dtd">
<svg version="1.1" id="图层_1" xmlns="http://www.w3.org/2000/svg" xmlns:xlink="http://www.w3.org/1999/xlink" x="0px" y="0px"
	 width="16px" height="22px" viewBox="8 5 16 22" enable-background="new 8 5 16 22" xml:space="preserve">
<path d="M9,5C8.447,5,8,5.224,8,5.5v21C8,26.775,8.447,27,9,27s1-0.225,1-0.5v-21C10,5.224,9.553,5,9,5z M14.25,6
	C12.268,6,11,7,11,7v10c0,0,1.36-1,3.25-1s4.425,2,6.5,2S24,17,24,17V7c0,0-1.453,1-3.25,1S16.232,6,14.25,6z"/>
</svg>
