<?xml version="1.0" encoding="utf-8"?>
<!-- Generator: Adobe Illustrator 15.0.0, SVG Export Plug-In . SVG Version: 6.00 Build 0)  -->
<!DOCTYPE svg PUBLIC "-//W3C//DTD SVG 1.1//EN" "http://www.w3.org/Graphics/SVG/1.1/DTD/svg11.dtd">
<svg version="1.1" id="图层_1" xmlns="http://www.w3.org/2000/svg" xmlns:xlink="http://www.w3.org/1999/xlink" x="0px" y="0px"
	 width="24px" height="18px" viewBox="4 6 24 18" enable-background="new 4 6 24 18" xml:space="preserve">
<path d="M9.813,6L4,24h4.219l1-3.5h5.687l1,3.5L18,17.469L14.312,6H9.813L9.813,6z M12.031,10.844h0.094l1.844,6.438h-3.813
	L12.031,10.844L12.031,10.844z M21.125,12L17.25,24h1.469h1.344h0.063l-0.031-0.094l0.656-2.25h3.781L25.188,24H28l-3.875-12H21.125
	L21.125,12z M22.594,15.219h0.063l1.25,4.313h-2.563L22.594,15.219L22.594,15.219z"/>
</svg>
