<?xml version="1.0" encoding="utf-8"?>
<!-- Generator: Adobe Illustrator 15.0.0, SVG Export Plug-In . SVG Version: 6.00 Build 0)  -->
<!DOCTYPE svg PUBLIC "-//W3C//DTD SVG 1.1//EN" "http://www.w3.org/Graphics/SVG/1.1/DTD/svg11.dtd">
<svg version="1.1" id="图层_1" xmlns="http://www.w3.org/2000/svg" xmlns:xlink="http://www.w3.org/1999/xlink" x="0px" y="0px"
	 width="22px" height="21.999px" viewBox="5 5 22 21.999" enable-background="new 5 5 22 21.999" xml:space="preserve">
<path d="M14.953,5c-0.291,0-0.524,0.233-0.524,0.524v1.243c-0.582,0.1-1.146,0.242-1.686,0.442l-0.622-1.064
	c-0.146-0.251-0.469-0.342-0.721-0.196L9.6,6.997c-0.251,0.145-0.341,0.469-0.196,0.72l0.622,1.064
	c-0.45,0.373-0.87,0.776-1.244,1.228L7.718,9.403C7.466,9.258,7.143,9.348,6.997,9.6l-1.048,1.8
	c-0.145,0.251-0.055,0.575,0.197,0.72l1.063,0.622c-0.202,0.544-0.344,1.101-0.442,1.687H5.523C5.233,14.429,5,14.662,5,14.952
	v2.096c0,0.29,0.233,0.522,0.523,0.522h1.244c0.1,0.582,0.242,1.146,0.442,1.687l-1.063,0.622C5.894,20.025,5.804,20.35,5.949,20.6
	L6.997,22.4c0.146,0.25,0.469,0.341,0.721,0.195l1.063-0.621c0.374,0.449,0.794,0.869,1.244,1.243l-0.622,1.063
	c-0.145,0.252-0.055,0.574,0.196,0.721L11.4,26.05c0.252,0.146,0.575,0.056,0.721-0.196l0.622-1.063
	c0.54,0.2,1.104,0.344,1.686,0.441v1.244c0,0.289,0.233,0.522,0.524,0.522h2.095c0.29,0,0.522-0.233,0.522-0.522v-1.244
	c0.582-0.1,1.146-0.241,1.688-0.441l0.622,1.063c0.146,0.252,0.47,0.342,0.72,0.196l1.801-1.047
	c0.252-0.146,0.343-0.469,0.197-0.721l-0.623-1.063c0.451-0.374,0.871-0.794,1.244-1.244l1.064,0.623
	c0.251,0.145,0.574,0.055,0.72-0.197l1.048-1.801c0.146-0.25,0.055-0.574-0.195-0.721l-1.063-0.622c0.2-0.54,0.343-1.104,0.44-1.687
	h1.244c0.291,0,0.523-0.233,0.523-0.522v-2.096c0-0.29-0.232-0.523-0.523-0.523h-1.244c-0.099-0.586-0.239-1.143-0.44-1.687
	l1.063-0.622c0.25-0.145,0.342-0.469,0.195-0.72l-1.048-1.8c-0.146-0.251-0.469-0.342-0.72-0.196l-1.064,0.605
	c-0.373-0.451-0.793-0.854-1.244-1.228l0.623-1.064c0.146-0.251,0.055-0.575-0.197-0.72L20.6,5.949
	c-0.25-0.146-0.574-0.055-0.72,0.196L19.258,7.21c-0.54-0.201-1.104-0.344-1.688-0.442V5.524C17.57,5.233,17.338,5,17.048,5H14.953z
	 M15.968,12.334c2.027,0,3.666,1.639,3.666,3.666c0,2.027-1.639,3.667-3.666,3.667c-2.027,0-3.684-1.64-3.684-3.667
	C12.284,13.973,13.94,12.334,15.968,12.334z"/>
</svg>
