<?xml version="1.0" encoding="utf-8"?>
<!-- Generator: Adobe Illustrator 15.0.0, SVG Export Plug-In . SVG Version: 6.00 Build 0)  -->
<!DOCTYPE svg PUBLIC "-//W3C//DTD SVG 1.1//EN" "http://www.w3.org/Graphics/SVG/1.1/DTD/svg11.dtd">
<svg version="1.1" id="图层_1" xmlns="http://www.w3.org/2000/svg" xmlns:xlink="http://www.w3.org/1999/xlink" x="0px" y="0px"
	 width="24.001px" height="23.936px" viewBox="4 4 24.001 23.936" enable-background="new 4 4 24.001 23.936" xml:space="preserve">
<path d="M15.964,4.004c-0.721,0-1.443,0.275-1.991,0.823L4.82,13.979c-1.093,1.095-1.093,2.888,0,3.982l9.153,9.153
	c1.094,1.095,2.886,1.095,3.983,0l9.151-9.153c1.096-1.094,1.096-2.887,0-3.982l-0.043-0.042l-9.638,9.637
	c-0.415,0.412-0.961,0.642-1.548,0.642l-0.429-0.011l-0.09-0.057c-0.393-0.094-0.755-0.295-1.042-0.586l-6.339-6.352
	c-0.415-0.415-0.647-0.968-0.647-1.555c0-0.587,0.233-1.134,0.647-1.547l1.878-1.878c0.408-0.405,0.968-0.632,1.548-0.633
	c0.579,0,1.147,0.231,1.555,0.64l2.919,2.927l6.206-6.213l-4.129-4.129C17.408,4.276,16.686,4,15.964,4V4.004z M25.342,7.978
	c-0.212,0-0.412,0.084-0.563,0.232l-8.949,8.948l-3.918-3.924c-0.146-0.148-0.348-0.226-0.557-0.226
	c-0.206,0-0.407,0.08-0.555,0.226l-1.872,1.871c-0.308,0.309-0.315,0.813-0.007,1.119l6.346,6.354
	c0.127,0.127,0.289,0.205,0.465,0.225c0.029,0.01,0.061,0,0.091,0c0.003,0,0.005,0,0.007,0v0.01c0.211,0,0.413-0.084,0.562-0.231
	L27.77,11.197c0.309-0.308,0.309-0.805,0-1.112l-1.871-1.871c-0.15-0.15-0.346-0.234-0.557-0.233V7.978z"/>
</svg>
