<?xml version="1.0" encoding="utf-8"?>
<!-- Generator: Adobe Illustrator 15.0.0, SVG Export Plug-In . SVG Version: 6.00 Build 0)  -->
<!DOCTYPE svg PUBLIC "-//W3C//DTD SVG 1.1//EN" "http://www.w3.org/Graphics/SVG/1.1/DTD/svg11.dtd">
<svg version="1.1" id="图层_1" xmlns="http://www.w3.org/2000/svg" xmlns:xlink="http://www.w3.org/1999/xlink" x="0px" y="0px"
	 width="18px" height="20.266px" viewBox="7 6.734 18 20.266" enable-background="new 7 6.734 18 20.266" xml:space="preserve">
<path d="M9,7v9.531c0,2.053,0.648,3.652,1.938,4.781S13.927,23,16.031,23c2.081,0,3.75-0.559,5.032-1.688
	C22.352,20.184,23,18.584,23,16.531V7h-3.938v9.531c0,1.113-0.285,1.941-0.813,2.469c-0.521,0.527-1.248,0.781-2.219,0.781
	c-0.979,0-1.746-0.254-2.281-0.781c-0.536-0.535-0.813-1.364-0.813-2.469V7H9z M7,25v2h18v-2H7z"/>
</svg>
