<?xml version="1.0" encoding="utf-8"?>
<!-- Generator: Adobe Illustrator 15.0.0, SVG Export Plug-In . SVG Version: 6.00 Build 0)  -->
<!DOCTYPE svg PUBLIC "-//W3C//DTD SVG 1.1//EN" "http://www.w3.org/Graphics/SVG/1.1/DTD/svg11.dtd">
<svg version="1.1" id="图层_1" xmlns="http://www.w3.org/2000/svg" xmlns:xlink="http://www.w3.org/1999/xlink" x="0px" y="0px"
	 width="20px" height="21.973px" viewBox="5 5 20 21.973" enable-background="new 5 5 20 21.973" xml:space="preserve">
<path d="M10.848,5.008c-0.061,0.015-0.124,0.049-0.178,0.09c-0.215,0.161-0.271,0.474-0.111,0.691l1.07,1.406
	c-1.796,0.869-2.945,2.458-2.945,4.177H21.32c0-1.719-1.151-3.308-2.948-4.177l1.073-1.406c0.156-0.218,0.1-0.531-0.116-0.691
	c-0.216-0.16-0.509-0.104-0.664,0.112l-1.212,1.631C16.704,6.597,15.875,6.46,15,6.46c-0.873,0-1.703,0.137-2.455,0.381L11.34,5.21
	c-0.08-0.108-0.191-0.183-0.313-0.202C10.966,5,10.915,4.994,10.848,5.008L10.848,5.008z M12.525,8.446
	c0.509,0,0.938,0.407,0.938,0.915c0,0.509-0.429,0.918-0.938,0.918c-0.512,0-0.896-0.409-0.896-0.918
	C11.629,8.853,12.013,8.446,12.525,8.446z M17.479,8.446c0.508,0,0.895,0.407,0.895,0.915c0,0.509-0.387,0.918-0.895,0.918
	c-0.511,0-0.938-0.409-0.938-0.918C16.54,8.853,16.967,8.446,17.479,8.446z M6.451,11.529C5.68,11.541,4.986,12.195,5,12.911v5.851
	c-0.012,0.723,0.689,1.387,1.473,1.387c0.782,0,1.395-0.664,1.384-1.387v-5.851C7.872,12.175,7.244,11.51,6.451,11.529z
	 M23.486,11.529c-0.778,0.012-1.356,0.666-1.346,1.382v5.851c-0.01,0.723,0.605,1.387,1.387,1.387c0.783,0,1.484-0.664,1.473-1.387
	v-5.851C25.014,12.175,24.273,11.51,23.486,11.529z M8.571,11.973v9.423c0,0.354,0.157,0.705,0.426,0.959
	c0.267,0.254,0.648,0.398,1.026,0.398h0.691v2.902c-0.009,0.691,0.874,1.316,1.606,1.316s1.617-0.625,1.608-1.316v-2.902
	l2.143-0.023v2.886c-0.008,0.686,0.898,1.356,1.607,1.356c0.713,0,1.615-0.672,1.611-1.356v-2.861h0.732
	c0.381,0.013,0.713-0.146,0.985-0.399c0.263-0.254,0.42-0.604,0.42-0.957v-9.424L8.571,11.973L8.571,11.973z"/>
</svg>
