<?xml version="1.0" encoding="utf-8"?>
<!-- Generator: Adobe Illustrator 15.0.0, SVG Export Plug-In . SVG Version: 6.00 Build 0)  -->
<!DOCTYPE svg PUBLIC "-//W3C//DTD SVG 1.1//EN" "http://www.w3.org/Graphics/SVG/1.1/DTD/svg11.dtd">
<svg version="1.1" id="图层_1" xmlns="http://www.w3.org/2000/svg" xmlns:xlink="http://www.w3.org/1999/xlink" x="0px" y="0px"
	 width="15px" height="19.189px" viewBox="9 7 15 19.189" enable-background="new 9 7 15 19.189" xml:space="preserve">
<path d="M9,7v0.384v18.423v0.383h0.384h7.228c2.305,0,4.14-0.48,5.438-1.471C23.352,23.727,24,22.22,24,20.337
	c0-1.028-0.271-1.953-0.832-2.751c-0.456-0.656-1.156-1.107-1.982-1.407c0.578-0.348,1.172-0.668,1.504-1.215
	c0.451-0.746,0.672-1.589,0.672-2.527c0-1.777-0.699-3.186-2.079-4.094C19.911,7.434,18.049,7,15.716,7H9.384H9z M13.286,10.262
	h0.384h2.047c1.059,0,1.872,0.202,2.463,0.64c0.598,0.434,0.895,1.151,0.896,2.015c-0.001,0.781-0.289,1.453-0.863,1.887
	c-0.577,0.426-1.383,0.622-2.398,0.64h-2.527V15.06v-4.414L13.286,10.262L13.286,10.262z M13.285,17.49h3.583
	c0.924,0,1.655,0.264,2.144,0.768c0.01,0.01,0.021-0.01,0.03,0c0.472,0.495,0.703,1.194,0.703,2.047c0,0.82-0.274,1.541-0.831,1.983
	c-0.553,0.43-1.344,0.606-2.303,0.606h-2.942h-0.384v-0.384v-4.638V17.49L13.285,17.49z"/>
</svg>
