<?xml version="1.0" encoding="utf-8"?>
<!-- Generator: Adobe Illustrator 15.0.0, SVG Export Plug-In . SVG Version: 6.00 Build 0)  -->
<!DOCTYPE svg PUBLIC "-//W3C//DTD SVG 1.1//EN" "http://www.w3.org/Graphics/SVG/1.1/DTD/svg11.dtd">
<svg version="1.1" id="图层_1" xmlns="http://www.w3.org/2000/svg" xmlns:xlink="http://www.w3.org/1999/xlink" x="0px" y="0px"
	 width="20px" height="20px" viewBox="6 6 20 20" enable-background="new 6 6 20 20" xml:space="preserve">
<path d="M16,6C10.476,6,6,10.477,6,16c0,5.523,4.476,10,10,10c5.523,0,10-4.477,10-10C26,10.477,21.523,6,16,6z M16,7.813
	c4.514,0,8.188,3.674,8.188,8.188c0,4.515-3.674,8.188-8.188,8.188c-4.514,0-8.187-3.674-8.187-8.189
	C7.813,11.486,11.486,7.813,16,7.813z M16.188,10.25c-1.076,0-1.942,0.289-2.625,0.844c-0.677,0.55-1.017,1.294-1,2.281l0.031,0.063
	h1.938c0-0.494,0.178-0.876,0.5-1.125c0.321-0.255,0.695-0.375,1.156-0.375c0.539,0,0.96,0.169,1.25,0.469
	c0.295,0.294,0.438,0.681,0.438,1.219c0,0.466-0.12,0.893-0.375,1.281c-0.256,0.383-0.599,0.797-1.031,1.219
	c-0.61,0.517-1.011,0.938-1.188,1.281c-0.178,0.338-0.276,0.926-0.281,1.719h2.031c0-0.481,0.047-0.845,0.125-1.094
	c0.083-0.25,0.276-0.535,0.594-0.813c0.621-0.499,1.126-1.026,1.531-1.625c0.409-0.604,0.625-1.265,0.625-1.969
	c0-1.054-0.347-1.876-1-2.469C18.257,10.563,17.352,10.25,16.188,10.25L16.188,10.25z M15,20.594v1.938h2.063v-1.938H15z"/>
</svg>
