<?xml version="1.0" encoding="utf-8"?>
<!-- Generator: Adobe Illustrator 15.0.0, SVG Export Plug-In . SVG Version: 6.00 Build 0)  -->
<!DOCTYPE svg PUBLIC "-//W3C//DTD SVG 1.1//EN" "http://www.w3.org/Graphics/SVG/1.1/DTD/svg11.dtd">
<svg version="1.1" id="图层_1" xmlns="http://www.w3.org/2000/svg" xmlns:xlink="http://www.w3.org/1999/xlink" x="0px" y="0px"
	 width="20px" height="20px" viewBox="6 6 20 20" enable-background="new 6 6 20 20" xml:space="preserve">
<path d="M14.947,6v11.053h2.104V6H14.947z M12.842,6.511C8.865,7.832,6,11.581,6,16c0,5.523,4.477,10,10,10c5.521,0,10-4.477,10-10
	c0-4.419-2.866-8.168-6.843-9.489v2.253c2.79,1.218,4.737,3.998,4.737,7.236c0,4.359-3.535,7.896-7.896,7.896
	c-4.36,0-7.895-3.535-7.895-7.896c0-3.238,1.946-6.019,4.736-7.236V6.511H12.842z"/>
</svg>
