<?xml version="1.0" encoding="utf-8"?>
<!-- Generator: Adobe Illustrator 15.0.0, SVG Export Plug-In . SVG Version: 6.00 Build 0)  -->
<!DOCTYPE svg PUBLIC "-//W3C//DTD SVG 1.1//EN" "http://www.w3.org/Graphics/SVG/1.1/DTD/svg11.dtd">
<svg version="1.1" id="图层_1" xmlns="http://www.w3.org/2000/svg" xmlns:xlink="http://www.w3.org/1999/xlink" x="0px" y="0px"
	 width="25.632px" height="21.13px" viewBox="2 5.001 25.632 21.13" enable-background="new 2 5.001 25.632 21.13"
	 xml:space="preserve">
<path d="M17.333,5.001c-0.701,0-1.026,0.41-1.026,0.41s0.069,2.683,0.069,3.303c0,0.619-3.049,5.574-3.799,6.211
	c-0.334,0.283-0.973,0.43-1.485,0.756v-0.143c0-0.568-0.378-0.966-0.944-0.966H3.03c-0.283,0-0.561,0.067-0.753,0.281
	C2.08,15.062,1.98,15.34,2.003,15.624l0.839,9.567c0.042,0.528,0.472,0.939,1.01,0.939h6.296c0.566,0,0.944-0.459,0.944-1.025
	v-1.127l0.801,0.22c0.515,0.141,1.192,0.374,1.917,0.374h9.394c2.245,0,3.017-2.411,0.771-2.411c2.246,0,3.031-2.856,0.787-2.856
	c2.244,0,2.998-2.875,0.752-2.875c2.246,0,3.016-2.857,0.771-2.857h-7.563c0.274-1.089,0.786-4.568,0.786-4.568
	c-0.114-1.687-1.249-3.798-1.249-3.798C17.898,5.056,17.591,5,17.333,5.001L17.333,5.001z M3.696,16.133h5.835v8.44H4.415
	L3.696,16.133z"/>
</svg>
