<?xml version="1.0" encoding="utf-8"?>
<!-- Generator: Adobe Illustrator 15.0.0, SVG Export Plug-In . SVG Version: 6.00 Build 0)  -->
<!DOCTYPE svg PUBLIC "-//W3C//DTD SVG 1.1//EN" "http://www.w3.org/Graphics/SVG/1.1/DTD/svg11.dtd">
<svg version="1.1" id="图层_1" xmlns="http://www.w3.org/2000/svg" xmlns:xlink="http://www.w3.org/1999/xlink" x="0px" y="0px"
	 width="16px" height="19px" viewBox="8 7 16 19" enable-background="new 8 7 16 19" xml:space="preserve">
<path d="M16,7c-0.682,0-1.28,0.48-1.656,1.219C11.273,8.961,10,11.695,10,15v3c0,1.35-1.334,3-2,3v1h2h12h2v-1c-0.667,0-2-1.65-2-3
	v-3c0-3.305-1.273-6.039-4.344-6.781C17.279,7.48,16.682,7,16,7z M13,23c0,1.657,1.343,3,3,3c1.656,0,3-1.343,3-3H13z"/>
</svg>
