<?xml version="1.0" encoding="utf-8"?>
<!-- Generator: Adobe Illustrator 15.0.0, SVG Export Plug-In . SVG Version: 6.00 Build 0)  -->
<!DOCTYPE svg PUBLIC "-//W3C//DTD SVG 1.1//EN" "http://www.w3.org/Graphics/SVG/1.1/DTD/svg11.dtd">
<svg version="1.1" id="图层_1" xmlns="http://www.w3.org/2000/svg" xmlns:xlink="http://www.w3.org/1999/xlink" x="0px" y="0px"
	 width="23.026px" height="23.026px" viewBox="4 4 23.026 23.026" enable-background="new 4 4 23.026 23.026" xml:space="preserve">
<path d="M19.346,4.017c-0.783,0.082-1.599,0.472-2.256,1.129l-2.607,2.587c-1.315,1.314-1.632,3.368-0.564,4.436l0.272,0.271
	l4.727-4.746c0.311-0.311,0.773-0.315,1.07-0.019l3.365,3.365c0.297,0.296,0.291,0.759-0.021,1.069l-4.746,4.728l0.272,0.272
	c1.066,1.065,3.119,0.75,4.436-0.564l2.587-2.606c1.313-1.315,1.534-3.251,0.468-4.319l-4.941-4.94
	C20.875,4.145,20.13,3.935,19.346,4.017L19.346,4.017z M17.712,11.195c-0.317,0-0.632,0.105-0.875,0.35l-5.291,5.291
	c-0.488,0.488-0.488,1.264,0,1.751l0.895,0.896c0.487,0.487,1.263,0.487,1.751,0l5.292-5.292c0.486-0.487,0.486-1.263,0-1.751
	l-0.896-0.895C18.344,11.301,18.029,11.195,17.712,11.195L17.712,11.195z M10.65,13.296c-0.977-0.052-2.096,0.364-2.918,1.187
	l-2.587,2.606c-1.314,1.313-1.534,3.251-0.467,4.318l4.941,4.94c1.067,1.067,3.004,0.848,4.318-0.467l2.606-2.587
	c1.314-1.313,1.631-3.367,0.564-4.437l-0.272-0.271l-4.728,4.747c-0.311,0.312-0.773,0.315-1.07,0.019l-3.365-3.365
	c-0.296-0.295-0.291-0.758,0.02-1.068l4.746-4.728l-0.272-0.272C11.767,13.518,11.236,13.327,10.65,13.296L10.65,13.296z"/>
</svg>
