<?xml version="1.0" encoding="utf-8"?>
<!-- Generator: Adobe Illustrator 15.0.0, SVG Export Plug-In . SVG Version: 6.00 Build 0)  -->
<!DOCTYPE svg PUBLIC "-//W3C//DTD SVG 1.1//EN" "http://www.w3.org/Graphics/SVG/1.1/DTD/svg11.dtd">
<svg version="1.1" id="图层_1" xmlns="http://www.w3.org/2000/svg" xmlns:xlink="http://www.w3.org/1999/xlink" x="0px" y="0px"
	 width="14.068px" height="24.457px" viewBox="8 3 14.068 24.457" enable-background="new 8 3 14.068 24.457" xml:space="preserve">
<path d="M15.035,3C11.146,3,8,6.146,8,10.035c0,2.492,0.836,3.955,1.882,5.303c1.046,1.35,2.325,2.544,3.064,4.37
	c0.821,2.028,1.18,4.038,1.456,5.522c0.139,0.742,0.27,1.362,0.399,1.76c0.063,0.197,0.127,0.346,0.178,0.412
	c0.052,0.065,0.051,0.054,0.056,0.054c0,0,0.01,0.015,0.055-0.054c0.051-0.066,0.113-0.213,0.179-0.412
	c0.13-0.397,0.26-1.018,0.398-1.76c0.276-1.484,0.636-3.494,1.456-5.522c0.738-1.826,2.02-3.021,3.064-4.37
	c1.045-1.348,1.881-2.811,1.881-5.303C22.068,6.146,18.924,3,15.035,3L15.035,3z M15.035,7.645c1.313,0,2.377,1.063,2.377,2.377
	c0,1.313-1.064,2.377-2.377,2.377s-2.377-1.064-2.377-2.377C12.658,8.708,13.722,7.645,15.035,7.645z"/>
</svg>
