<?xml version="1.0" encoding="utf-8"?>
<!-- Generator: Adobe Illustrator 15.0.0, SVG Export Plug-In . SVG Version: 6.00 Build 0)  -->
<!DOCTYPE svg PUBLIC "-//W3C//DTD SVG 1.1//EN" "http://www.w3.org/Graphics/SVG/1.1/DTD/svg11.dtd">
<svg version="1.1" id="图层_1" xmlns="http://www.w3.org/2000/svg" xmlns:xlink="http://www.w3.org/1999/xlink" x="0px" y="0px"
	 width="24.003px" height="24.007px" viewBox="3 3.995 24.003 24.007" enable-background="new 3 3.995 24.003 24.007"
	 xml:space="preserve">
<path d="M26.999,15.296l-2.843,0.006c-0.342-4.527-3.967-8.139-8.495-8.463l-0.005-2.844l-1.358,0.002l0.006,2.846
	c-4.526,0.342-8.138,3.967-8.46,8.494L3,15.343l0.002,1.356l2.843-0.006c0.343,4.526,3.969,8.137,8.496,8.461l0.005,2.848L15.703,28
	l-0.006-2.848c4.526-0.342,8.137-3.967,8.463-8.494l2.843-0.006L26.999,15.296z M15.015,23.832c-4.32,0.008-7.84-3.498-7.848-7.819
	c-0.01-4.32,3.498-7.842,7.817-7.851c4.321-0.008,7.843,3.5,7.851,7.821C22.846,20.303,19.334,23.824,15.015,23.832z M19.764,15.99
	c0.006,2.629-2.125,4.766-4.754,4.77c-2.63,0.006-4.768-2.123-4.772-4.751c-0.005-2.631,2.124-4.768,4.754-4.772
	C17.623,11.23,19.76,13.359,19.764,15.99z"/>
</svg>
