<?xml version="1.0" encoding="utf-8"?>
<!-- Generator: Adobe Illustrator 15.0.0, SVG Export Plug-In . SVG Version: 6.00 Build 0)  -->
<!DOCTYPE svg PUBLIC "-//W3C//DTD SVG 1.1//EN" "http://www.w3.org/Graphics/SVG/1.1/DTD/svg11.dtd">
<svg version="1.1" id="图层_1" xmlns="http://www.w3.org/2000/svg" xmlns:xlink="http://www.w3.org/1999/xlink" x="0px" y="0px"
	 width="17px" height="25.5px" viewBox="8 3 17 25.5" enable-background="new 8 3 17 25.5" xml:space="preserve">
<path d="M15.845,3c-2.153,0-3.878,1.616-3.878,3.63v10.306c0,2.015,1.725,3.631,3.878,3.631h1.309c2.154,0,3.88-1.616,3.88-3.631
	V6.63c0-2.014-1.726-3.63-3.88-3.63H15.845z M8,16.6c0,4.113,2.918,7.537,6.8,8.323V28.5h3.399v-3.577
	C22.081,24.137,25,20.713,25,16.6h-2.268v0.336c0,2.989-2.571,5.33-5.578,5.33h-1.31c-3.007,0-5.578-2.341-5.578-5.33V16.6H8L8,16.6
	z"/>
</svg>
