<?xml version="1.0" encoding="utf-8"?>
<!-- Generator: Adobe Illustrator 15.0.0, SVG Export Plug-In . SVG Version: 6.00 Build 0)  -->
<!DOCTYPE svg PUBLIC "-//W3C//DTD SVG 1.1//EN" "http://www.w3.org/Graphics/SVG/1.1/DTD/svg11.dtd">
<svg version="1.1" id="图层_1" xmlns="http://www.w3.org/2000/svg" xmlns:xlink="http://www.w3.org/1999/xlink" x="0px" y="0px"
	 width="22px" height="18.094px" viewBox="5 6 22 18.094" enable-background="new 5 6 22 18.094" xml:space="preserve">
<path d="M5,6v18.094h22V6H5z M6.063,8.094H9v2H6.063V8.094z M23.063,8.094H26v2h-2.938V8.094L23.063,8.094z M6.063,12.094H9v2H6.063
	V12.094z M23.063,12.094H26v2h-2.938V12.094L23.063,12.094z M6.063,16.094H9v2H6.063V16.094z M23.063,16.094H26v2h-2.938V16.094
	L23.063,16.094z M6.063,20.094H9v2H6.063V20.094z M23.063,20.094H26v2h-2.938V20.094L23.063,20.094z"/>
</svg>
