<?xml version="1.0" encoding="utf-8"?>
<!-- Generator: Adobe Illustrator 15.0.0, SVG Export Plug-In . SVG Version: 6.00 Build 0)  -->
<!DOCTYPE svg PUBLIC "-//W3C//DTD SVG 1.1//EN" "http://www.w3.org/Graphics/SVG/1.1/DTD/svg11.dtd">
<svg version="1.1" id="图层_1" xmlns="http://www.w3.org/2000/svg" xmlns:xlink="http://www.w3.org/1999/xlink" x="0px" y="0px"
	 width="22px" height="24.358px" viewBox="4 4 22 24.358" enable-background="new 4 4 22 24.358" xml:space="preserve">
<path d="M22.029,4.007c-1.055-0.069-2.168,0.359-3.079,1.278L5.453,18.848c-1.184,1.188-1.6,2.688-1.409,4.063
	c0.19,1.373,0.911,2.613,1.9,3.57c0.988,0.957,2.242,1.652,3.604,1.834c1.361,0.181,2.833-0.205,3.964-1.344l12.382-12.448
	l-1.344-1.343l-12.35,12.448c-0.729,0.733-1.518,0.935-2.391,0.819c-0.875-0.116-1.825-0.604-2.555-1.312
	c-0.731-0.706-1.224-1.631-1.343-2.489c-0.12-0.859,0.078-1.646,0.885-2.457L20.262,6.595c0.577-0.583,1.141-0.723,1.67-0.688
	c0.53,0.034,1.06,0.302,1.475,0.721c0.412,0.42,0.687,0.965,0.721,1.507c0.032,0.542-0.118,1.097-0.688,1.67
	c-3.623,3.646-7.255,7.296-10.876,10.942c-0.172,0.173-0.277,0.173-0.426,0.164c-0.15-0.013-0.351-0.099-0.491-0.229
	c-0.142-0.133-0.221-0.27-0.229-0.394c-0.011-0.125,0-0.263,0.229-0.491l8.616-8.681L18.95,9.805l-8.649,8.681
	c-0.549,0.552-0.802,1.267-0.753,1.933c0.048,0.667,0.377,1.224,0.819,1.638c0.44,0.416,0.993,0.715,1.638,0.754
	c0.645,0.041,1.372-0.222,1.9-0.754c3.623-3.646,7.252-7.294,10.875-10.94c0.908-0.914,1.277-2.058,1.213-3.112
	C25.926,6.948,25.454,6,24.747,5.285C24.042,4.569,23.084,4.075,22.029,4.007L22.029,4.007z"/>
</svg>
