<?xml version="1.0" encoding="utf-8"?>
<!-- Generator: Adobe Illustrator 15.0.0, SVG Export Plug-In . SVG Version: 6.00 Build 0)  -->
<!DOCTYPE svg PUBLIC "-//W3C//DTD SVG 1.1//EN" "http://www.w3.org/Graphics/SVG/1.1/DTD/svg11.dtd">
<svg version="1.1" id="图层_1" xmlns="http://www.w3.org/2000/svg" xmlns:xlink="http://www.w3.org/1999/xlink" x="0px" y="0px"
	 width="21.219px" height="23.373px" viewBox="4 4 21.219 23.373" enable-background="new 4 4 21.219 23.373" xml:space="preserve">
<path d="M11.218,6.133v14.124c-0.608-0.138-1.824-0.444-2.543-0.337C6.094,20.307,4,22.284,4,24.322
	c0,2.037,2.094,3.371,4.675,2.984c2.438-0.365,4.311-2.137,4.526-4.05h0.017v-0.333V10.618l10-1.484v9.306
	c-0.608-0.139-1.956-0.426-2.675-0.317c-2.581,0.387-4.675,2.364-4.675,4.401c0,2.039,2.094,3.373,4.675,2.985
	c2.438-0.364,4.443-2.137,4.658-4.05h0.017L25.219,4L11.218,6.133z"/>
</svg>
