<?xml version="1.0" encoding="utf-8"?>
<!-- Generator: Adobe Illustrator 15.0.0, SVG Export Plug-In . SVG Version: 6.00 Build 0)  -->
<!DOCTYPE svg PUBLIC "-//W3C//DTD SVG 1.1//EN" "http://www.w3.org/Graphics/SVG/1.1/DTD/svg11.dtd">
<svg version="1.1" id="图层_1" xmlns="http://www.w3.org/2000/svg" xmlns:xlink="http://www.w3.org/1999/xlink" x="0px" y="0px"
	 width="22.633px" height="22.556px" viewBox="4 4 22.633 22.556" enable-background="new 4 4 22.633 22.556" xml:space="preserve">
<path d="M10.088,20.537c2.011,1.998,8.607,6.99,11.999,5.852c1.683-0.564,3.59-2.584,4.546-4.842L20,17.671
	c-1.65,2.06-1.918,3.597-1.881,4.069c-1.779-0.665-3.616-1.731-5.559-3.69c-1.971-1.931-3.049-3.76-3.727-5.535
	c0.475,0.034,2.01-0.241,4.058-1.906L8.972,4C6.722,4.971,4.714,6.891,4.16,8.577C3.042,11.975,8.078,18.539,10.088,20.537
	L10.088,20.537z"/>
</svg>
