<?xml version="1.0" encoding="utf-8"?>
<!-- Generator: Adobe Illustrator 15.0.0, SVG Export Plug-In . SVG Version: 6.00 Build 0)  -->
<!DOCTYPE svg PUBLIC "-//W3C//DTD SVG 1.1//EN" "http://www.w3.org/Graphics/SVG/1.1/DTD/svg11.dtd">
<svg version="1.1" id="图层_1" xmlns="http://www.w3.org/2000/svg" xmlns:xlink="http://www.w3.org/1999/xlink" x="0px" y="0px"
	 width="27px" height="22.125px" viewBox="2 5 27 22.125" enable-background="new 2 5 27 22.125" xml:space="preserve">
<path d="M22,5v4.063H10.719c-3.588,0-6.038,1.381-7.313,3.375C2.131,14.432,2,16.843,2,19.25l2.75-2.188
	c0.132-1.297,0.406-2.405,0.906-3.188c0.767-1.199,2.013-1.815,5.063-1.813H22v4.031l6.688-5.594L22,5z M29,12.875l-2.75,2.188
	c-0.132,1.297-0.406,2.405-0.906,3.188c-0.767,1.199-2.012,1.815-5.063,1.813H9v-4.031l-6.688,5.594L9,27.125v-4.063h11.281
	c3.588,0,6.037-1.381,7.313-3.375S29,15.282,29,12.875z"/>
</svg>
