<?xml version="1.0" encoding="utf-8"?>
<!-- Generator: Adobe Illustrator 15.0.0, SVG Export Plug-In . SVG Version: 6.00 Build 0)  -->
<!DOCTYPE svg PUBLIC "-//W3C//DTD SVG 1.1//EN" "http://www.w3.org/Graphics/SVG/1.1/DTD/svg11.dtd">
<svg version="1.1" id="图层_1" xmlns="http://www.w3.org/2000/svg" xmlns:xlink="http://www.w3.org/1999/xlink" x="0px" y="0px"
	 width="25px" height="25px" viewBox="4 4 25 25" enable-background="new 4 4 25 25" xml:space="preserve">
<path d="M4,4v1v1v1v1v1v1v1h1h1h1h1h1h1h1v-1V9V8V7V6V5V4h-1H9H8H7H6H5H4z M12,4v1h1V4H12z M14,4v1v1v1v1h-1v1h1v1v1v1h1h1v-1h-1v-1
	h1V9h-1V8h1v1h1V8V7h-1h-1V6h1h1V5h1h1v1h1V5V4h-1h-1h-1h-1h-1H14z M17,6v1h1V6H17z M17,9v1h1v1h1v-1V9h-1H17z M19,9h1v1v1h1v-1V9V8
	V7h-1h-1v1V9z M18,11h-1v1v1h1v-1V11z M17,13h-1h-1v1v1h1h1h1v1h-1v1v1h1h1v-1v-1h1h1h1v1v1h1v1v1h-1v-1v-1h-1v1v1h-1h-1v1h1v1h-1
	h-1h-1v-1h1v-1v-1h-1v1h-1h-1v1h1v1v1h-1h-1v1h1h1h1v-1h1v1h-1v1v1h1h1v-1v-1h1v1v1h1v1v1h-1h-1v1h1h1h1h1v-1h-1v-1v-1v-1h1h1v1v1v1
	h1v1h1v-1v-1h-1v-1v-1h1h1v-1h-1v-1h1v-1h-1h-1v-1h1v-1h-1h-1v-1h1v-1h-1v-1h-1v-1v-1h-1h-1v-1v-1v-1h-1h-1v1h1v1v1h-1v-1h-1h-1V13z
	 M23,15h1v-1v-1v-1h-1v1h-1v1h1V15z M25,18h1v-1v-1v-1v-1v-1h-1v1v1v1v1V18z M26,13h1v-1h-1V13z M27,13v1h1v1h-1v1h1h1v-1v-1v-1v-1
	h-1v1H27z M26,18v1h1v-1H26z M26,27h1h1h1v-1h-1h-1h-1V27z M14,23v-1v-1h-1h-1v1v1h1H14z M15,20v-1h-1v1H15z M15,19h1v-1h-1V19z
	 M15,18v-1v-1v-1h-1v1h-1v-1v-1h-1v1h-1v1h1v1h1h1v1H15z M12,17h-1v1h1V17z M12,18v1v1h1v-1v-1H12z M11,18h-1v-1H9v1H8v-1v-1H7H6v1
	h1v1H6v1H5H4v1h1h1h1v-1h1h1v1h1v-1h1V18z M10,20v1h1v-1H10z M9,20H8H7v1h1h1V20z M6,18v-1H5H4v1h1H6z M6,16v-1H5H4v1h1H6z M10,17h1
	v-1h-1V17z M11,15v-1h-1v-1H9H8H7v1v1h1v-1h1v1h1H11z M7,13v-1H6v1H7z M10,13h1v1h1v-1v-1h-1h-1V13z M13,14h1v-1v-1h-1v1V14z M19,18
	v1h1v-1H19z M17,11v-1h-1v1H17z M13,9h-1v1v1h1v-1V9z M22,4v1v1v1v1v1v1v1h1h1h1h1h1h1h1v-1V9V8V7V6V5V4h-1h-1h-1h-1h-1h-1H22z M5,5
	h1h1h1h1h1v1v1v1v1v1H9H8H7H6H5V9V8V7V6V5z M23,5h1h1h1h1h1v1v1v1v1v1h-1h-1h-1h-1h-1V9V8V7V6V5z M6,6v1v1v1h1h1h1V8V7V6H8H7H6z
	 M12,6v1h1V6H12z M24,6v1v1v1h1h1h1V8V7V6h-1h-1H24z M4,12v1h1v-1H4z M28,17v1v1h1v-1v-1H28z M21,21h1h1h1v1v1v1h-1h-1h-1v-1v-1V21z
	 M4,22v1v1v1v1v1v1v1h1h1h1h1h1h1h1v-1v-1v-1v-1v-1v-1v-1h-1H9H8H7H6H5H4z M22,22v1h1v-1H22z M28,22v1h1v-1H28z M5,23h1h1h1h1h1v1v1
	v1v1v1H9H8H7H6H5v-1v-1v-1v-1V23z M6,24v1v1v1h1h1h1v-1v-1v-1H8H7H6z M13,25v1h-1v1h1h1v1h-1h-1v1h1h1h1h1h1h1v-1v-1h-1v1h-1h-1v-1
	h1v-1h-1h-1v-1H13z M28,28v1h1v-1H28z"/>
</svg>
