<?xml version="1.0" encoding="utf-8"?>
<!-- Generator: Adobe Illustrator 15.0.0, SVG Export Plug-In . SVG Version: 6.00 Build 0)  -->
<!DOCTYPE svg PUBLIC "-//W3C//DTD SVG 1.1//EN" "http://www.w3.org/Graphics/SVG/1.1/DTD/svg11.dtd">
<svg version="1.1" id="图层_1" xmlns="http://www.w3.org/2000/svg" xmlns:xlink="http://www.w3.org/1999/xlink" x="0px" y="0px"
	 width="21.825px" height="21.747px" viewBox="5 5 21.825 21.747" enable-background="new 5 5 21.825 21.747" xml:space="preserve">
<path d="M12.75,5C8.47,5,5,8.47,5,12.75s3.47,7.75,7.75,7.75c1.802,0,3.465-0.609,4.781-1.641l1.781,1.781
	c-0.393,0.392-0.393,1.029,0,1.422l4.391,4.391c0.393,0.392,1.015,0.392,1.406,0l1.422-1.422c0.392-0.393,0.392-1.016,0-1.406
	l-4.391-4.391c-0.393-0.394-1.031-0.394-1.423,0l-1.797-1.797c0.989-1.303,1.578-2.928,1.578-4.688C20.5,8.47,17.029,5,12.75,5
	L12.75,5z M12.75,6.625c3.379,0,6.125,2.746,6.125,6.125s-2.746,6.125-6.125,6.125s-6.125-2.746-6.125-6.125
	S9.371,6.625,12.75,6.625z"/>
</svg>
