<?xml version="1.0" encoding="utf-8"?>
<!-- Generator: Adobe Illustrator 15.0.0, SVG Export Plug-In . SVG Version: 6.00 Build 0)  -->
<!DOCTYPE svg PUBLIC "-//W3C//DTD SVG 1.1//EN" "http://www.w3.org/Graphics/SVG/1.1/DTD/svg11.dtd">
<svg version="1.1" id="图层_1" xmlns="http://www.w3.org/2000/svg" xmlns:xlink="http://www.w3.org/1999/xlink" x="0px" y="0px"
	 width="25.126px" height="12.407px" viewBox="3 9 25.126 12.407" enable-background="new 3 9 25.126 12.407" xml:space="preserve">
<path d="M8.375,9c-1.438,0-2.632,0.364-3.531,1.094c-0.892,0.729-1.302,1.588-1.25,2.531l0.031,0.063l2.563-0.031
	c0-0.464,0.201-0.838,0.563-1.125c0.361-0.295,0.826-0.438,1.438-0.438c0.692,0,1.232,0.178,1.594,0.531
	c0.368,0.354,0.563,0.843,0.563,1.469v1.063H8.25c-1.658,0-2.961,0.32-3.875,0.969C3.461,15.767,3,16.655,3,17.813
	c0,1.121,0.337,2.016,1,2.656c0.671,0.643,1.63,0.938,2.875,0.938c0.744,0,1.427-0.188,2.031-0.563
	c0.604-0.384,1.076-0.847,1.438-1.406c0.022,0.287,0.066,0.588,0.125,0.875c0.066,0.287,0.154,0.573,0.25,0.875h2.719
	c-0.147-0.435-0.246-0.861-0.313-1.313c-0.066-0.457-0.094-0.943-0.094-1.438v-5.313c0-1.327-0.427-2.354-1.281-3.063
	S9.768,9,8.375,9L8.375,9z M18.531,9.188v2.188h5.938l-6.031,8.063v1.75h9.688v-2.156H21.75l6.094-8.125v-1.72H18.531z
	 M14.563,14.25v1.969h2.969V14.25H14.563z M8.188,15.813h2.156v1.781c-0.177,0.436-0.549,0.817-1.094,1.156
	c-0.538,0.339-1.142,0.5-1.813,0.5c-0.56,0-0.979-0.109-1.281-0.375c-0.295-0.271-0.469-0.637-0.469-1.094
	c0-0.522,0.245-0.991,0.688-1.375C6.817,16.016,7.406,15.813,8.188,15.813z"/>
</svg>
