<?xml version="1.0" encoding="utf-8"?>
<!-- Generator: Adobe Illustrator 15.0.0, SVG Export Plug-In . SVG Version: 6.00 Build 0)  -->
<!DOCTYPE svg PUBLIC "-//W3C//DTD SVG 1.1//EN" "http://www.w3.org/Graphics/SVG/1.1/DTD/svg11.dtd">
<svg version="1.1" id="图层_1" xmlns="http://www.w3.org/2000/svg" xmlns:xlink="http://www.w3.org/1999/xlink" x="0px" y="0px"
	 width="23.805px" height="22.654px" viewBox="4 4 23.805 22.654" enable-background="new 4 4 23.805 22.654" xml:space="preserve">
<path d="M15.896,4l-3.29,7.996L4,12.662l6.593,5.594l-2.04,8.398l7.356-4.539l7.37,4.523l-2.055-8.396l6.58-5.608l-8.619-0.638
	L15.896,4z M15.896,6.901l0.61,1.485l1.652,4.012v0.014l0.264,0.639l0.68,0.042h0.016l4.316,0.333l1.609,0.125l-1.234,1.041
	l-3.305,2.805l-0.527,0.443l0.166,0.666h0.016l1.025,4.192l0.375,1.567l-1.373-0.832l-3.692-2.263v-0.015l-0.583-0.36l-0.597,0.36
	l-3.679,2.275l-1.374,0.861l0.375-1.583l1.027-4.206l0.166-0.666l-0.527-0.443l-3.29-2.805l-1.235-1.055l1.61-0.111l4.303-0.319
	l0.694-0.055l0.236-0.625v-0.014l0.014-0.014l1.651-4.012L15.896,6.901L15.896,6.901z"/>
</svg>
