<?xml version="1.0" encoding="utf-8"?>
<!-- Generator: Adobe Illustrator 15.0.0, SVG Export Plug-In . SVG Version: 6.00 Build 0)  -->
<!DOCTYPE svg PUBLIC "-//W3C//DTD SVG 1.1//EN" "http://www.w3.org/Graphics/SVG/1.1/DTD/svg11.dtd">
<svg version="1.1" id="图层_1" xmlns="http://www.w3.org/2000/svg" xmlns:xlink="http://www.w3.org/1999/xlink" x="0px" y="0px"
	 width="22.057px" height="22.57px" viewBox="4 4 22.057 22.57" enable-background="new 4 4 22.057 22.57" xml:space="preserve">
<path d="M16.824,4L4,16.824v9.746h9.233l12.824-12.824L16.824,4z M16.279,9.643l1.042,1.026L9.338,18.65l-1.041-1.041L16.279,9.643
	L16.279,9.643z M19.471,12.833l1.041,1.025l-7.983,7.983L11.486,20.8L19.471,12.833L19.471,12.833z M7.848,21.714
	c0.562,0,1.01,0.447,1.01,1.011c0,0.562-0.448,1.01-1.01,1.01c-0.563,0-1.01-0.448-1.01-1.01
	C6.838,22.162,7.285,21.714,7.848,21.714z"/>
</svg>
