<?xml version="1.0" encoding="utf-8"?>
<!-- Generator: Adobe Illustrator 15.0.0, SVG Export Plug-In . SVG Version: 6.00 Build 0)  -->
<!DOCTYPE svg PUBLIC "-//W3C//DTD SVG 1.1//EN" "http://www.w3.org/Graphics/SVG/1.1/DTD/svg11.dtd">
<svg version="1.1" id="图层_1" xmlns="http://www.w3.org/2000/svg" xmlns:xlink="http://www.w3.org/1999/xlink" x="0px" y="0px"
	 width="25.126px" height="21.243px" viewBox="2 5 25.126 21.243" enable-background="new 2 5 25.126 21.243" xml:space="preserve">
<path d="M9.941,5.004C8.979,5.031,8.06,5.173,7.371,5.831L2,11.095l4.697,3.764l1.393-1.285v12.669h13V13.574l1.338,1.285
	l4.698-3.764L21.755,5.83c-0.917-0.876-2.228-0.826-3.534-0.826h-0.429c0.01,0.058,0.015,0.108,0.015,0.169
	c0,1.118-1.455,2.035-3.244,2.035c-1.788,0-3.244-0.917-3.244-2.035c0-0.06,0.01-0.111,0.016-0.169h-0.429
	C10.578,5.004,10.262,4.995,9.941,5.004L9.941,5.004z"/>
</svg>
