<?xml version="1.0" encoding="utf-8"?>
<!-- Generator: Adobe Illustrator 15.0.0, SVG Export Plug-In . SVG Version: 6.00 Build 0)  -->
<!DOCTYPE svg PUBLIC "-//W3C//DTD SVG 1.1//EN" "http://www.w3.org/Graphics/SVG/1.1/DTD/svg11.dtd">
<svg version="1.1" id="图层_1" xmlns="http://www.w3.org/2000/svg" xmlns:xlink="http://www.w3.org/1999/xlink" x="0px" y="0px"
	 width="26.655px" height="22.188px" viewBox="2.001 4 26.655 22.188" enable-background="new 2.001 4 26.655 22.188"
	 xml:space="preserve">
<path d="M17.563,4C11.444,4,6.469,8.977,6.469,15.094c0,0.287,0.039,0.563,0.063,0.844l-3.031-3l-1.5,1.5l5.75,5.719l5.75-5.719
	l-1.531-1.5l-3.25,3.125c-0.035-0.315-0.063-0.644-0.063-0.969c0-4.928,3.979-8.906,8.905-8.906c4.93,0,8.906,3.978,8.906,8.906
	S22.491,24,17.563,24c-2.408,0-4.585-0.953-6.188-2.5l-1.563,1.531c2.001,1.953,4.739,3.156,7.75,3.156
	c6.117,0,11.094-4.978,11.094-11.095C28.656,8.976,23.68,4,17.563,4L17.563,4z"/>
</svg>
