<?xml version="1.0" encoding="utf-8"?>
<!-- Generator: Adobe Illustrator 15.0.0, SVG Export Plug-In . SVG Version: 6.00 Build 0)  -->
<!DOCTYPE svg PUBLIC "-//W3C//DTD SVG 1.1//EN" "http://www.w3.org/Graphics/SVG/1.1/DTD/svg11.dtd">
<svg version="1.1" id="图层_1" xmlns="http://www.w3.org/2000/svg" xmlns:xlink="http://www.w3.org/1999/xlink" x="0px" y="0px"
	 width="18.326px" height="19.285px" viewBox="5.784 6 18.326 19.285" enable-background="new 5.784 6 18.326 19.285"
	 xml:space="preserve">
<path d="M15.055,6c-3.688,0-6.676,2.989-6.676,6.676c0,3.687,2.988,6.676,6.676,6.676c3.687,0,6.675-2.989,6.675-6.676
	C21.73,8.989,18.741,6,15.055,6z M10.929,14.9h8.252c0,1.493-2.339,2.968-4.126,2.968C13.266,17.868,10.929,16.314,10.929,14.9z
	 M10.883,19.676C8.28,20.764,6.403,22.835,6,25.285h18.109c-0.403-2.45-2.28-4.521-4.883-5.609
	c-1.223,0.729-2.646,1.159-4.172,1.159C13.528,20.835,12.104,20.405,10.883,19.676L10.883,19.676z"/>
</svg>
