<?xml version="1.0" encoding="utf-8"?>
<!-- Generator: Adobe Illustrator 15.0.0, SVG Export Plug-In . SVG Version: 6.00 Build 0)  -->
<!DOCTYPE svg PUBLIC "-//W3C//DTD SVG 1.1//EN" "http://www.w3.org/Graphics/SVG/1.1/DTD/svg11.dtd">
<svg version="1.1" id="图层_1" xmlns="http://www.w3.org/2000/svg" xmlns:xlink="http://www.w3.org/1999/xlink" x="0px" y="0px"
	 width="28.125px" height="19.281px" viewBox="2 6 28.125 19.281" enable-background="new 2 6 28.125 19.281" xml:space="preserve">
<path d="M16.063,6c-3.688,0-6.688,3.001-6.688,6.688s3,6.656,6.688,6.656c3.687,0,6.688-2.97,6.688-6.656S19.749,6,16.063,6z
	 M6.938,9.281c-2.011,0-3.625,1.615-3.625,3.625c0,2.01,1.614,3.656,3.625,3.656c0.81,0,1.551-0.271,2.156-0.72
	c-0.131-0.281-0.248-0.577-0.344-0.875c-0.458,0.44-1.195,0.781-1.813,0.781c-0.976,0-2.25-0.854-2.25-1.625h3.844
	c-0.092-0.469-0.156-0.942-0.156-1.438c0-0.989,0.22-1.942,0.563-2.813C8.362,9.494,7.679,9.281,6.938,9.281z M25.188,9.281
	c-0.74,0-1.424,0.213-2,0.594c0.344,0.87,0.531,1.824,0.531,2.813c0,0.495-0.033,0.969-0.125,1.438h3.844
	c0,0.771-1.274,1.625-2.25,1.625c-0.617,0-1.354-0.341-1.813-0.781c-0.098,0.298-0.214,0.594-0.344,0.875
	c0.604,0.448,1.346,0.72,2.156,0.72c2.01,0,3.625-1.646,3.625-3.656C28.813,10.898,27.197,9.281,25.188,9.281z M11.938,14.906h8.25
	c0,1.492-2.336,2.969-4.125,2.969C14.273,17.875,11.938,16.32,11.938,14.906z M4.656,16.719C3.237,17.313,2.22,18.445,2,19.781
	h7.625c0.57-0.389,1.186-0.723,1.844-1C10.804,18.277,10.226,17.684,9.75,17c-0.011,0,0.01-0.027,0-0.031
	c-0.164-0.09-0.354-0.176-0.531-0.25c-0.666,0.397-1.449,0.656-2.281,0.656s-1.584-0.259-2.25-0.656H4.656L4.656,16.719z
	 M22.906,16.719c-0.178,0.074-0.367,0.159-0.531,0.25c-0.477,0.686-1.055,1.277-1.719,1.781c0.656,0.277,1.273,0.643,1.844,1.031
	h7.625c-0.221-1.336-1.238-2.471-2.656-3.063c-0.666,0.397-1.449,0.625-2.281,0.625S23.572,17.116,22.906,16.719z M11.875,19.688
	C9.272,20.775,7.403,22.831,7,25.281h18.125c-0.404-2.45-2.273-4.506-4.875-5.594c-1.223,0.729-2.661,1.155-4.188,1.155
	S13.097,20.417,11.875,19.688z"/>
</svg>
