<?xml version="1.0" encoding="utf-8"?>
<!-- Generator: Adobe Illustrator 15.0.0, SVG Export Plug-In . SVG Version: 6.00 Build 0)  -->
<!DOCTYPE svg PUBLIC "-//W3C//DTD SVG 1.1//EN" "http://www.w3.org/Graphics/SVG/1.1/DTD/svg11.dtd">
<svg version="1.1" id="图层_1" xmlns="http://www.w3.org/2000/svg" xmlns:xlink="http://www.w3.org/1999/xlink" x="0px" y="0px"
	 width="14.259px" height="24px" viewBox="7 4 14.259 24" enable-background="new 7 4 14.259 24" xml:space="preserve">
<path d="M18.072,4.001c-2.494,0.201-4.601,5.052-6.906,7.5H8.135c-1.514,0-1.514,9,0,9h3.031c2.305,2.447,4.451,7.269,6.906,7.469
	C18.125,27.98,18.176,28,18.229,28c1.672,0,3.03-5.372,3.03-12c0-6.627-1.358-12-3.03-12C18.176,4,18.127,4,18.072,4.001
	L18.072,4.001z M17.76,6.626c1.057,0,1.938,4.19,1.938,9.375c0,5.185-0.882,9.375-1.938,9.375c-0.826,0-1.514-2.586-1.781-6.188
	c0.99-0.729,1.625-1.877,1.625-3.188c0-1.312-0.635-2.457-1.625-3.188C16.246,9.211,16.934,6.626,17.76,6.626z"/>
</svg>
