<?xml version="1.0" encoding="utf-8"?>
<!-- Generator: Adobe Illustrator 15.0.0, SVG Export Plug-In . SVG Version: 6.00 Build 0)  -->
<!DOCTYPE svg PUBLIC "-//W3C//DTD SVG 1.1//EN" "http://www.w3.org/Graphics/SVG/1.1/DTD/svg11.dtd">
<svg version="1.1" id="图层_1" xmlns="http://www.w3.org/2000/svg" xmlns:xlink="http://www.w3.org/1999/xlink" x="0px" y="0px"
	 width="25.012px" height="19.879px" viewBox="4 6 25.012 19.879" enable-background="new 4 6 25.012 19.879" xml:space="preserve">
<path d="M16.514,6C11.787,6,7.43,7.659,4,10.423l2.377,2.928c2.772-2.224,6.296-3.558,10.137-3.558
	c3.842,0,7.363,1.334,10.137,3.558l2.361-2.928C25.582,7.664,21.234,6,16.514,6L16.514,6z M16.514,10.927
	c-3.559,0-6.831,1.247-9.413,3.321l2.361,2.943c1.927-1.544,4.371-2.473,7.052-2.473c2.666,0,5.118,0.911,7.051,2.44l2.361-2.912
	C23.344,12.174,20.07,10.927,16.514,10.927z M15.994,15.932c-2.172,0.111-4.163,0.923-5.762,2.204l2.361,2.912
	c1.072-0.849,2.431-1.354,3.919-1.354c1.484,0,2.834,0.511,3.903,1.354l2.36-2.928c-1.721-1.369-3.901-2.188-6.264-2.188
	C16.34,15.932,16.165,15.922,15.994,15.932L15.994,15.932z M16.514,21.079c-1.143,0-2.2,0.405-3.038,1.069l3.021,3.73l3.038-3.746
	C18.695,21.477,17.646,21.079,16.514,21.079z"/>
</svg>
