<?xml version="1.0" encoding="utf-8"?>
<!-- Generator: Adobe Illustrator 15.0.0, SVG Export Plug-In . SVG Version: 6.00 Build 0)  -->
<!DOCTYPE svg PUBLIC "-//W3C//DTD SVG 1.1//EN" "http://www.w3.org/Graphics/SVG/1.1/DTD/svg11.dtd">
<svg version="1.1" id="图层_1" xmlns="http://www.w3.org/2000/svg" xmlns:xlink="http://www.w3.org/1999/xlink" x="0px" y="0px"
	 width="18px" height="24.51px" viewBox="7 4 18 24.51" enable-background="new 7 4 18 24.51" xml:space="preserve">
<path d="M16,4C9.178,4,7,8.519,7,16.255C7,23.99,9.178,28.51,16,28.51c6.823,0,9-4.521,9-12.255C25,8.519,22.823,4,16,4z
	 M14.947,5.34l6.958,6.511l-4.754,4.532l4.754,4.532l-6.958,6.511l0.032-9.287l-3.925,3.733l-1.021-0.957l4.755-4.532l-4.755-4.532
	l1.021-0.958l3.925,3.734L14.947,5.34z M16.605,9.042v5.649l2.969-2.84L16.605,9.042z M16.605,18.074v5.648l2.969-2.809
	L16.605,18.074z"/>
</svg>
