<svg version="1.1" xmlns="http://www.w3.org/2000/svg" xmlns:xlink="http://www.w3.org/1999/xlink" x="0px" y="0px" width="20px" height="28px"
	 viewBox="0 0 20 28">
<path fill="#1279F8" d="M10,0L9.602,0.391L5.157,4.926c-0.22,0.223-0.22,0.592,0,0.813c0.22,0.228,0.579,0.228,0.797,0l3.491-3.559
	v15.619c-0.006,0.315,0.238,0.576,0.549,0.576c0.304,0.004,0.561-0.239,0.563-0.56c0,0,0-0.008,0-0.018V2.179l3.49,3.559
	c0.221,0.228,0.572,0.228,0.797,0c0.225-0.221,0.225-0.59,0-0.813L10.4,0.391L10,0z M0,8.734v0.566v18.139V28h0.555h18.889H20
	v-0.561V9.301V8.734h-0.557h-5c-0.31-0.008-0.56,0.244-0.566,0.558c0,0.312,0.246,0.567,0.548,0.575c0.009,0,0.019,0,0.019,0h4.447
	v17.001H1.109V9.867h4.445C5.863,9.87,6.115,9.621,6.117,9.309C6.122,8.994,5.876,8.734,5.57,8.734c-0.006,0-0.01,0-0.018,0h-5H0z"
	/>
</svg>
