<?xml version="1.0" encoding="utf-8"?>
<!-- Generator: Adobe Illustrator 15.0.0, SVG Export Plug-In . SVG Version: 6.00 Build 0)  -->
<!DOCTYPE svg PUBLIC "-//W3C//DTD SVG 1.1//EN" "http://www.w3.org/Graphics/SVG/1.1/DTD/svg11.dtd">
<svg version="1.1" id="图层_1" xmlns="http://www.w3.org/2000/svg" xmlns:xlink="http://www.w3.org/1999/xlink" x="0px" y="0px"
	 width="23px" height="23px" viewBox="1 1 23 23" enable-background="new 1 1 23 23" xml:space="preserve">
<path fill="#1B7AF4" d="M12.5,1C6.155,1,1,6.155,1,12.5C1,18.841,6.155,24,12.5,24C18.841,24,24,18.841,24,12.5
	C24,6.155,18.841,1,12.5,1z M12.5,2.045c5.777,0,10.459,4.674,10.459,10.455c0,5.777-4.684,10.459-10.459,10.459
	c-5.781,0-10.455-4.684-10.455-10.459C2.045,6.719,6.719,2.045,12.5,2.045z M11.98,6.75v5.23H6.75v1.043h5.23v5.227h1.043v-5.229
	h5.227V11.98h-5.229V6.75H11.98z"/>
</svg>
