<?xml version="1.0" encoding="utf-8"?>
<!-- Generator: Adobe Illustrator 15.0.0, SVG Export Plug-In . SVG Version: 6.00 Build 0)  -->
<!DOCTYPE svg PUBLIC "-//W3C//DTD SVG 1.1//EN" "http://www.w3.org/Graphics/SVG/1.1/DTD/svg11.dtd">
<svg version="1.1" id="图层_1" xmlns="http://www.w3.org/2000/svg" xmlns:xlink="http://www.w3.org/1999/xlink" x="0px" y="0px"
	 width="25px" height="25px" viewBox="0 0 25 25" enable-background="new 0 0 25 25" xml:space="preserve">
<path d="M12.5,0C5.604,0,0,5.604,0,12.5C0,19.393,5.604,25,12.5,25C19.393,25,25,19.393,25,12.5C25,5.604,19.393,0,12.5,0z
	 M12.5,1.136c6.279,0,11.369,5.08,11.369,11.364c0,6.279-5.09,11.369-11.369,11.369c-6.284,0-11.364-5.09-11.364-11.369
	C1.136,6.216,6.216,1.136,12.5,1.136z M11.827,6.425c-0.171,0-0.231,0.104-0.231,0.216v7.669c0,0.17,0.115,0.233,0.231,0.233h1.292
	c0.169,0,0.234-0.117,0.234-0.233V6.641c0-0.17-0.119-0.216-0.234-0.216H11.827z M11.827,16.652c-0.171,0-0.231,0.1-0.231,0.217
	v1.49c0,0.17,0.115,0.216,0.231,0.216h1.351c0.172,0,0.229-0.099,0.229-0.216v-1.49c0-0.17-0.119-0.217-0.229-0.217H11.827z"/>
</svg>
