<?xml version="1.0" encoding="utf-8"?>
<!-- Generator: Adobe Illustrator 15.0.0, SVG Export Plug-In . SVG Version: 6.00 Build 0)  -->
<!DOCTYPE svg PUBLIC "-//W3C//DTD SVG 1.1//EN" "http://www.w3.org/Graphics/SVG/1.1/DTD/svg11.dtd">
<svg version="1.1" id="图层_1" xmlns="http://www.w3.org/2000/svg" xmlns:xlink="http://www.w3.org/1999/xlink" x="0px" y="0px"
	 width="28.002px" height="24px" viewBox="1 1 28.002 24" enable-background="new 1 1 28.002 24" xml:space="preserve">
<path fill="#1B7AF4" d="M3.797,1C2.262,1,1,2.256,1,3.788v16.183c0,1.541,1.262,2.797,2.798,2.797h8.964
	c0.934,0,1.68,0.748,1.68,1.664C14.439,24.746,14.691,25,15,25c0.048,0,0.094-0.01,0.143-0.023c0.146-0.028,0.273-0.135,0.346-0.26
	c0.045-0.088,0.074-0.178,0.074-0.285c0-0.916,0.744-1.664,1.678-1.664h8.959c1.541,0,2.803-1.256,2.803-2.797V3.788
	C29,2.256,27.738,1,26.197,1h-8.959C16.326,1,15.506,1.452,15,2.134C14.486,1.452,13.673,1,12.761,1H3.797z M3.797,2.115h8.964
	c0.934,0,1.68,0.74,1.68,1.673v18.489c-0.473-0.373-1.034-0.627-1.68-0.627H3.797c-0.932,0-1.679-0.746-1.679-1.681V3.788
	C2.119,2.855,2.866,2.115,3.797,2.115z M17.238,2.115h8.959c0.932,0,1.684,0.74,1.684,1.673v16.183c0,0.935-0.752,1.68-1.684,1.68
	h-8.959c-0.639,0-1.209,0.255-1.678,0.627V3.788C15.561,2.855,16.301,2.115,17.238,2.115z"/>
</svg>
