<svg version="1.1" xmlns="http://www.w3.org/2000/svg" xmlns:xlink="http://www.w3.org/1999/xlink" x="0px" y="0px"
	 width="25px" height="25px" viewBox="0 0 25 25" enable-background="new 0 0 25 25">
<path fill="#000" d="M23.387,5.822h-4.436C17.77,5.822,17.084,3,15.727,3H9.274C8.08,3,7.182,5.822,6.048,5.822H1.613
	C0.722,5.822,0,6.544,0,7.434v12.501c0,0.891,0.722,1.611,1.613,1.611h21.774c0.891,0,1.613-0.722,1.613-1.611V7.434
	C25,6.544,24.277,5.822,23.387,5.822L23.387,5.822z M12.5,19.129c-3.118,0-5.645-2.527-5.645-5.645c0-3.118,2.527-5.646,5.645-5.646
	s5.645,2.527,5.645,5.646C18.145,16.602,15.618,19.129,12.5,19.129L12.5,19.129z M19.557,9.048c-0.334,0-0.604-0.271-0.604-0.605
	s0.271-0.604,0.604-0.604s0.605,0.271,0.605,0.604C20.162,8.778,19.891,9.048,19.557,9.048L19.557,9.048z M5.242,3.806H2.823v1.209
	h2.419V3.806L5.242,3.806z M12.5,9.048c-2.449,0-4.436,1.985-4.436,4.437c0,2.447,1.986,4.434,4.436,4.434s4.436-1.984,4.436-4.434
	C16.936,11.034,14.949,9.048,12.5,9.048L12.5,9.048z"/>
</svg>
