<?xml version="1.0" encoding="utf-8"?>
<!-- Generator: Adobe Illustrator 15.0.0, SVG Export Plug-In . SVG Version: 6.00 Build 0)  -->
<!DOCTYPE svg PUBLIC "-//W3C//DTD SVG 1.1//EN" "http://www.w3.org/Graphics/SVG/1.1/DTD/svg11.dtd">
<svg version="1.1" id="图层_1" xmlns="http://www.w3.org/2000/svg" xmlns:xlink="http://www.w3.org/1999/xlink" x="0px" y="0px"
	 width="23px" height="23px" viewBox="1 1 23 23" enable-background="new 1 1 23 23" xml:space="preserve">
<path d="M12.5,1C6.155,1,1,6.155,1,12.5C1,18.846,6.155,24,12.5,24C18.846,24,24,18.846,24,12.5C24,6.155,18.846,1,12.5,1z
	 M12.5,2.046c5.781,0,10.455,4.674,10.455,10.454c0,5.781-4.674,10.455-10.455,10.455c-5.779,0-10.454-4.674-10.454-10.455
	C2.046,6.721,6.721,2.046,12.5,2.046z M17.236,6.996l-5.717,8.884l-3.838-3.462l-0.702,0.784l4.279,3.87l0.458,0.408l0.327-0.521
	l6.076-9.407L17.236,6.996z"/>
</svg>
