<?xml version="1.0" encoding="utf-8"?>
<!-- Generator: Adobe Illustrator 15.0.0, SVG Export Plug-In . SVG Version: 6.00 Build 0)  -->
<!DOCTYPE svg PUBLIC "-//W3C//DTD SVG 1.1//EN" "http://www.w3.org/Graphics/SVG/1.1/DTD/svg11.dtd">
<svg version="1.1" id="图层_1" xmlns="http://www.w3.org/2000/svg" xmlns:xlink="http://www.w3.org/1999/xlink" x="0px" y="0px"
	 width="12.001px" height="12px" viewBox="1 2 12.001 12" enable-background="new 1 2 12.001 12" xml:space="preserve">
<path d="M12.339,2.001c-0.209,0.009-0.401,0.13-0.511,0.324L5.913,12.27L2.081,8.631C1.84,8.357,1.442,8.349,1.19,8.614
	C0.943,8.881,0.935,9.316,1.177,9.592c0.024,0.027,0.05,0.053,0.077,0.076l4.383,4.169c0.265,0.247,0.662,0.21,0.886-0.083
	c0.018-0.021,0.033-0.043,0.047-0.066L12.891,3.08c0.196-0.315,0.123-0.744-0.166-0.959C12.609,2.036,12.477,1.993,12.339,2.001z"/>
</svg>
