<?xml version="1.0" encoding="utf-8"?>
<!-- Generator: Adobe Illustrator 15.0.0, SVG Export Plug-In . SVG Version: 6.00 Build 0)  -->
<!DOCTYPE svg PUBLIC "-//W3C//DTD SVG 1.1//EN" "http://www.w3.org/Graphics/SVG/1.1/DTD/svg11.dtd">
<svg version="1.1" id="图层_1" xmlns="http://www.w3.org/2000/svg" xmlns:xlink="http://www.w3.org/1999/xlink" x="0px" y="0px"
	 width="12px" height="12px" viewBox="1 2 12 12" enable-background="new 1 2 12 12" xml:space="preserve">
<path fill="#1B7DFA" d="M12.343,2.001c-0.211,0.008-0.399,0.131-0.512,0.323L5.915,12.27L2.082,8.629
	C1.841,8.355,1.442,8.348,1.19,8.613C0.943,8.88,0.935,9.316,1.177,9.592c0.024,0.026,0.048,0.055,0.077,0.077l4.382,4.168
	c0.267,0.247,0.664,0.21,0.888-0.084c0.017-0.021,0.033-0.043,0.047-0.067l6.32-10.605c0.195-0.315,0.121-0.743-0.168-0.959
	C12.611,2.036,12.48,1.993,12.343,2.001z"/>
</svg>
