<svg version="1.1" xmlns="http://www.w3.org/2000/svg" xmlns:xlink="http://www.w3.org/1999/xlink" x="0px" y="0px"
	 width="26px" height="23px" viewBox="0 0 26 23" enable-background="new 0 0 26 23">
<path fill="#000" d="M14.5,0C7.434,0,0,11.5,0,11.5S7.467,23,14.5,23C26,23,26,11.5,26,11.5S26,0,14.5,0z M14.37,22C7.948,22,1,11.5,1,11.5
	S7.918,1,14.37,1C24.869,1,25,11.5,25,11.5S24.869,22,14.37,22z M15.984,11.5l3.709-3.711c0.408-0.406,0.408-1.074,0.002-1.482
	c-0.408-0.408-1.077-0.408-1.484,0l-3.711,3.71l-3.709-3.71c-0.408-0.408-1.076-0.408-1.484,0c-0.408,0.408-0.408,1.076,0,1.482
	l3.711,3.711l-3.711,3.709c-0.408,0.408-0.408,1.076,0,1.482c0.408,0.408,1.076,0.408,1.484,0l3.709-3.709l3.711,3.709
	c0.407,0.408,1.076,0.408,1.484,0c0.408-0.406,0.406-1.074-0.002-1.482L15.984,11.5z"/>
</svg>
