<svg version="1.1" xmlns="http://www.w3.org/2000/svg" xmlns:xlink="http://www.w3.org/1999/xlink" x="0px" y="0px"
	 width="26px" height="22px" viewBox="0 0 26 22" enable-background="new 0 0 26 22">
<path fill="#1B7DFA" d="M14.5,0C7.434,0,0,11,0,11s7.467,11,14.5,11C26,22,26,11,26,11S26,0,14.5,0z M19.693,16.063
	c-0.407,0.392-1.076,0.392-1.483,0l-3.711-3.549l-3.709,3.547c-0.408,0.392-1.076,0.392-1.484,0c-0.408-0.388-0.408-1.026,0-1.418
	l3.71-3.547l-3.71-3.549c-0.408-0.388-0.408-1.027,0-1.417c0.408-0.39,1.076-0.39,1.484,0l3.709,3.549L18.21,6.13
	c0.407-0.39,1.076-0.39,1.483,0C20.1,6.519,20.1,7.158,19.691,7.546l-3.709,3.548l3.709,3.549
	C20.102,15.033,20.104,15.673,19.693,16.063z"/>
</svg>
