<?xml version="1.0" encoding="utf-8"?>
<!-- Generator: Adobe Illustrator 15.0.0, SVG Export Plug-In . SVG Version: 6.00 Build 0)  -->
<!DOCTYPE svg PUBLIC "-//W3C//DTD SVG 1.1//EN" "http://www.w3.org/Graphics/SVG/1.1/DTD/svg11.dtd">
<svg version="1.1" id="图层_1" xmlns="http://www.w3.org/2000/svg" xmlns:xlink="http://www.w3.org/1999/xlink" x="0px" y="0px"
	 width="10.001px" height="10px" viewBox="4.999 5 10.001 10" enable-background="new 4.999 5 10.001 10" xml:space="preserve">
<path d="M14.723,14.723c-0.371,0.37-0.979,0.37-1.348,0L10,11.352l-3.373,3.371c-0.371,0.37-0.979,0.37-1.35,0
	c-0.371-0.371-0.371-0.979,0-1.351L8.652,10L5.279,6.628c-0.371-0.369-0.371-0.979,0-1.35c0.371-0.371,0.979-0.371,1.35,0L10,8.65
	l3.375-3.371c0.369-0.371,0.977-0.371,1.348,0c0.369,0.371,0.369,0.979-0.002,1.35L11.354,10l3.367,3.373
	C15.092,13.742,15.094,14.352,14.723,14.723z"/>
</svg>
