<svg version="1.1" xmlns="http://www.w3.org/2000/svg" xmlns:xlink="http://www.w3.org/1999/xlink" x="0px" y="0px" width="26px" height="23px"
	 viewBox="0 0 26 23">
<path fill="#000" d="M14.5,0C7.434,0,0,11.5,0,11.5S7.467,23,14.5,23C26,23,26,11.5,26,11.5S26,0,14.5,0z M19.693,16.793
	c-0.407,0.408-1.076,0.408-1.483,0l-3.711-3.711l-3.708,3.709c-0.408,0.408-1.076,0.408-1.484,0c-0.408-0.406-0.408-1.074,0-1.482
	l3.71-3.709l-3.71-3.71c-0.408-0.406-0.408-1.074,0-1.482c0.408-0.408,1.076-0.408,1.484,0l3.708,3.71l3.711-3.71
	c0.407-0.408,1.076-0.408,1.483,0C20.1,6.815,20.1,7.483,19.691,7.889l-3.709,3.71l3.709,3.709
	C20.102,15.717,20.104,16.385,19.693,16.793z"/>
</svg>
