<svg version="1.1" xmlns="http://www.w3.org/2000/svg" xmlns:xlink="http://www.w3.org/1999/xlink" x="0px" y="0px"
	 width="23px" height="27px" viewBox="0 0 23 27" enable-background="new 0 0 23 27">
<path fill="#000" d="M11.437,0.006c-0.023,0.002-0.055,0.008-0.078,0.016c-0.295,0.055-0.506,0.285-0.498,0.548v16.828l-4.016-3.464
	C6.69,13.8,6.463,13.743,6.247,13.778c-0.35,0.061-0.579,0.348-0.518,0.641c0.025,0.121,0.095,0.229,0.197,0.31l5.111,4.405
	l0.461,0.375l0.46-0.375l5.11-4.405c0.256-0.215,0.256-0.572,0-0.794c-0.258-0.211-0.662-0.211-0.918,0l0,0L12.14,17.4V0.57
	c0.01-0.305-0.269-0.559-0.617-0.57C11.493,0,11.467,0,11.437,0.006z M0,8.28v0.551v17.615V27h0.636h21.723H23v-0.557V8.831V8.28
	h-0.642h-5.75c-0.354-0.006-0.642,0.238-0.648,0.541c-0.001,0.304,0.281,0.553,0.63,0.561c0.009,0,0.019,0,0.021,0h5.113v16.517
	H1.274V9.381h5.111c0.355,0,0.646-0.24,0.648-0.544C7.04,8.53,6.757,8.282,6.405,8.28c-0.006,0-0.012,0-0.02,0h-5.75H0z"/>
</svg>
