<?xml version="1.0" encoding="utf-8"?>
<!-- Generator: Adobe Illustrator 15.0.0, SVG Export Plug-In . SVG Version: 6.00 Build 0)  -->
<!DOCTYPE svg PUBLIC "-//W3C//DTD SVG 1.1//EN" "http://www.w3.org/Graphics/SVG/1.1/DTD/svg11.dtd">
<svg version="1.1" id="图层_1" xmlns="http://www.w3.org/2000/svg" xmlns:xlink="http://www.w3.org/1999/xlink" x="0px" y="0px"
	 width="28px" height="17px" viewBox="0 0 28 17" enable-background="new 0 0 28 17" xml:space="preserve">
<path fill="#060001" d="M18,0H2C0.896,0,0,0.896,0,2v13c0,1.104,0.896,2,2,2h16c1.104,0,2-0.896,2-2V2C20,0.896,19.104,0,18,0z
	 M19,14.234C19,15.21,18.193,16,17.199,16H2.8C1.806,16,1,15.21,1,14.234V2.766C1,1.791,1.806,1,2.8,1h14.399
	C18.193,1,19,1.791,19,2.766V14.234z M21,6v5l7,4V2L21,6z M27,13l-5-3V7l5-3V13z"/>
</svg>
