<?xml version="1.0" encoding="utf-8"?>
<!-- Generator: Adobe Illustrator 15.0.0, SVG Export Plug-In . SVG Version: 6.00 Build 0)  -->
<!DOCTYPE svg PUBLIC "-//W3C//DTD SVG 1.1//EN" "http://www.w3.org/Graphics/SVG/1.1/DTD/svg11.dtd">
<svg version="1.1" id="图层_1" xmlns="http://www.w3.org/2000/svg" xmlns:xlink="http://www.w3.org/1999/xlink" x="0px" y="0px"
	 width="24px" height="22px" viewBox="0 1 24 22" enable-background="new 0 1 24 22" xml:space="preserve">
<path d="M12,1l-0.742,1.859L8.851,8.946L2.038,9.303L0,9.422l1.583,1.244l5.234,4.126l-1.685,6.319L4.608,23l1.71-1.051L12,18.4
	l5.675,3.547L19.385,23l-0.518-1.889l-1.688-6.32l5.229-4.126L24,9.422l-2.035-0.12l-6.82-0.356L12.745,2.86L12,1z M12,5.272
	l1.879,4.698l0.182,0.451l0.521,0.029l5.273,0.281l-4.062,3.177l-0.396,0.307l0.119,0.485l1.313,4.883l-4.41-2.748L12,16.578
	l-0.421,0.26l-4.416,2.748l1.319-4.884l0.122-0.485L8.205,13.91l-4.066-3.176l5.282-0.282l0.519-0.028l0.175-0.451L12,5.272z"/>
</svg>
