<?xml version="1.0" encoding="utf-8"?>
<!-- Generator: Adobe Illustrator 15.0.0, SVG Export Plug-In . SVG Version: 6.00 Build 0)  -->
<!DOCTYPE svg PUBLIC "-//W3C//DTD SVG 1.1//EN" "http://www.w3.org/Graphics/SVG/1.1/DTD/svg11.dtd">
<svg version="1.1" id="图层_1" xmlns="http://www.w3.org/2000/svg" xmlns:xlink="http://www.w3.org/1999/xlink" x="0px" y="0px"
	 width="24px" height="22px" viewBox="0 1 24 22" enable-background="new 0 1 24 22" xml:space="preserve">
<path d="M17.398,1C15.311,1,13.309,1.971,12,3.505C10.691,1.971,8.687,1,6.6,1C2.904,1,0,3.901,0,7.594
	c0,4.532,4.08,8.225,10.261,13.836L12,23l1.738-1.584C19.92,15.818,24,12.126,24,7.594C24,3.901,21.096,1,17.398,1z M12.12,19.645
	L12,19.764l-0.12-0.119C6.167,14.477,2.4,11.059,2.4,7.594c0-2.396,1.799-4.197,4.199-4.197c1.849,0,3.647,1.188,4.285,2.83h2.243
	c0.626-1.643,2.428-2.83,4.271-2.83c2.4,0,4.203,1.799,4.203,4.197C21.602,11.059,17.832,14.477,12.12,19.645z"/>
</svg>
