<?xml version="1.0" encoding="utf-8"?>
<!-- Generator: Adobe Illustrator 15.0.0, SVG Export Plug-In . SVG Version: 6.00 Build 0)  -->
<!DOCTYPE svg PUBLIC "-//W3C//DTD SVG 1.1//EN" "http://www.w3.org/Graphics/SVG/1.1/DTD/svg11.dtd">
<svg version="1.1" id="图层_1" xmlns="http://www.w3.org/2000/svg" xmlns:xlink="http://www.w3.org/1999/xlink" x="0px" y="0px"
	 width="25px" height="25px" viewBox="0 0 25 25" enable-background="new 0 0 25 25" xml:space="preserve">
<path d="M12.5,0C5.596,0,0,5.596,0,12.5C0,19.405,5.596,25,12.5,25C19.404,25,25,19.405,25,12.5C25,5.596,19.404,0,12.5,0L12.5,0z
	 M12.5,24C6.149,24,1,18.852,1,12.5C1,6.149,6.149,1,12.5,1C18.852,1,24,6.149,24,12.5C24,18.852,18.852,24,12.5,24L12.5,24z
	 M11.719,18.75h1.562v-1.563h-1.562V18.75z M15.516,7.332C15.2,7.009,14.797,6.75,14.305,6.55c-0.498-0.201-1.082-0.299-1.771-0.299
	c-0.584,0-1.117,0.099-1.601,0.299c-0.486,0.2-0.903,0.477-1.255,0.836C9.33,7.742,9.06,8.094,8.872,8.595
	c-0.185,0.501-0.279,0.78-0.279,1.563h1.595c0-0.781,0.205-1.372,0.63-1.881c0.42-0.51,0.99-0.723,1.714-0.723
	c0.704,0,1.231,0.19,1.569,0.534c0.334,0.343,0.506,0.834,0.506,1.455c0,0.482-0.157,0.916-0.475,1.294
	c-0.311,0.378-0.65,0.745-1.017,1.095c-0.371,0.349-0.667,0.719-0.975,1.104c-0.307,0.387-0.425,0.834-0.425,1.343v1.247h1.563
	v-0.671c0-0.401,0.059-0.747,0.215-1.05c0.15-0.305,0.34-0.58,0.576-0.824c0.231-0.25,0.479-0.489,0.756-0.725
	c0.27-0.234,0.527-0.482,0.76-0.741c0.234-0.262,0.432-0.554,0.582-0.878c0.158-0.324,0.234-0.703,0.234-1.147
	c0-0.385-0.068-0.775-0.213-1.174c-0.144-0.401-0.371-0.761-0.681-1.085l0,0L15.516,7.332z"/>
</svg>
