<svg version="1.1" xmlns="http://www.w3.org/2000/svg" xmlns:xlink="http://www.w3.org/1999/xlink" x="0px" y="0px" width="25px" height="25px"
	 viewBox="0 0 25 25">
<path fill="#000" d="M12.5,0C5.604,0,0,5.604,0,12.5S5.604,25,12.5,25S25,19.396,25,12.5S19.396,0,12.5,0z M12.5,1C18.857,1,24,6.143,24,12.5
	S18.857,24,12.5,24S1,18.857,1,12.5S6.143,1,12.5,1z M11.891,6.453c-0.106,0-0.172,0.064-0.172,0.172v1.313
	c0,0.107,0.064,0.188,0.172,0.188h1.219c0.107,0,0.173-0.08,0.173-0.188V6.625c0-0.107-0.063-0.172-0.173-0.172H11.891z
	 M11.859,10.063c-0.065,0.025-0.109,0.092-0.109,0.172v8.234c0,0.107,0.064,0.172,0.172,0.172h1.156
	c0.107,0,0.172-0.063,0.172-0.172v-8.234c0-0.106-0.064-0.172-0.172-0.172h-1.156C11.895,10.063,11.881,10.055,11.859,10.063z"/>
</svg>
