<svg version="1.1" xmlns="http://www.w3.org/2000/svg" xmlns:xlink="http://www.w3.org/1999/xlink" x="0px" y="0px" width="25px" height="25px"
	 viewBox="0 0 25 25">
<path fill="#000" d="M12.5,0C5.607,0,0,5.607,0,12.5S5.607,25,12.5,25S25,19.393,25,12.5S19.393,0,12.5,0z M13.253,18.468
	c0,0.107-0.071,0.179-0.181,0.179h-1.146c-0.107,0-0.179-0.07-0.179-0.179v-8.231c0-0.106,0.071-0.18,0.179-0.18h1.146
	c0.109,0,0.181,0.072,0.181,0.18V18.468z M13.289,7.941c0,0.107-0.072,0.18-0.18,0.18h-1.221c-0.106,0-0.178-0.072-0.178-0.18v-1.31
	c0-0.106,0.071-0.18,0.178-0.18h1.221c0.106,0,0.18,0.071,0.18,0.18V7.941z"/>
</svg>
