<svg version="1.1" xmlns="http://www.w3.org/2000/svg" xmlns:xlink="http://www.w3.org/1999/xlink" x="0px" y="0px"
	 width="26px" height="24px" viewBox="0 0 26 24" enable-background="new 0 0 26 24">
<path fill="#000" d="M11.438,21.82c-5.16,0-9.358-4.404-9.357-9.819C2.08,6.587,6.279,2.183,11.438,2.183c4.988,0,9.063,4.118,9.333,9.278
	h-3.149l4.188,7.625L26,11.456h-3.157C22.579,5.096,17.572,0,11.438,0C5.131,0,0,5.383,0,12c0,6.618,5.131,12,11.438,12V21.82z
	 M7,18.893V11.2h1.333V8.848C8.333,6.71,9.856,5,11.761,5h0.479c1.903,0,3.428,1.71,3.428,3.848v2.456H17V19H7V18.893z
	 M14.333,9.062c0-1.497-1.048-2.673-2.379-2.673c-1.335,0-2.38,1.176-2.38,2.673V11.2h4.76L14.333,9.062L14.333,9.062z"/>
</svg>
