<?xml version="1.0" encoding="utf-8"?>
<!-- Generator: Adobe Illustrator 15.0.0, SVG Export Plug-In . SVG Version: 6.00 Build 0)  -->
<!DOCTYPE svg PUBLIC "-//W3C//DTD SVG 1.1//EN" "http://www.w3.org/Graphics/SVG/1.1/DTD/svg11.dtd">
<svg version="1.1" id="图层_1" xmlns="http://www.w3.org/2000/svg" xmlns:xlink="http://www.w3.org/1999/xlink" x="0px" y="0px"
	 width="24px" height="22.002px" viewBox="0 1 24 22.002" enable-background="new 0 1 24 22.002" xml:space="preserve">
<path d="M12.022,1C5.398,1,0,5.511,0,11.133c0,2.764,1.334,5.244,3.471,7.082c-0.321,0.949-1.043,1.693-1.772,2.27
	c-0.394,0.312-0.77,0.572-1.066,0.826c-0.15,0.129-0.284,0.26-0.39,0.416c-0.11,0.158-0.206,0.383-0.137,0.627l0.06,0.188
	l0.166,0.101c0.62,0.336,1.392,0.397,2.225,0.34c0.833-0.053,1.737-0.234,2.629-0.469c1.729-0.453,3.35-1.101,4.208-1.457
	c0.847,0.168,1.695,0.271,2.586,0.271C18.604,21.326,24,16.813,24,11.193C24,5.572,18.65,1,12.022,1z M11.978,20.412
	c-0.882,0-1.709-0.082-2.541-0.26l-0.165-0.037l-0.134,0.072c-0.805,0.334-2.504,0.989-4.208,1.442
	c-0.853,0.222-1.704,0.392-2.435,0.437c-0.491,0.035-0.794-0.076-1.126-0.154c0.237-0.191,0.564-0.428,0.944-0.727
	c0.839-0.662,1.845-1.578,2.196-2.939l0.074-0.287l-0.239-0.172c-2.119-1.709-3.382-4.055-3.382-6.654
	c0-5.065,4.895-9.219,11.061-9.219c6.165,0,11.016,4.209,11.016,9.28C23.038,16.256,18.145,20.412,11.978,20.412z"/>
</svg>
