<svg version="1.1" xmlns="http://www.w3.org/2000/svg" xmlns:xlink="http://www.w3.org/1999/xlink"
	 x="0px" y="0px" width="24px" height="24px" viewBox="0 0 24 24">
<path fill="#000" d="M3.234,0.569c0.287-0.236,0.613-0.439,0.979-0.521c0.443-0.105,0.951-0.039,1.314,0.246c0.201,0.156,0.33,0.389,0.477,0.598
	c1.012,1.506,2.01,3.021,3.006,4.543C9.15,5.67,9.197,5.958,9.189,6.229C9.15,6.665,8.986,7.079,8.775,7.456
	C8.4,8.127,8.025,8.807,7.639,9.475c1.184,1.635,2.604,3.08,4.045,4.476c0.902,0.855,1.828,1.688,2.836,2.404
	c0.588-0.34,1.188-0.668,1.781-0.998c0.354-0.205,0.727-0.418,1.145-0.496c0.379-0.088,0.811-0.07,1.152,0.148
	c1.629,1.072,3.258,2.143,4.875,3.234c0.504,0.367,0.633,1.074,0.445,1.646c-0.143,0.514-0.533,0.895-0.846,1.314
	c-0.531,0.66-1.102,1.295-1.73,1.871c-0.463,0.398-0.949,0.85-1.586,0.922h-0.146c-0.988-0.033-1.957-0.287-2.883-0.648
	c-1.684-0.668-3.219-1.652-4.668-2.73c-1.711-1.289-3.299-2.73-4.805-4.252c-2.203-2.24-4.289-4.64-5.814-7.4
	C0.686,7.549,0.057,6.012,0,4.387V4.245c0.068-0.65,0.535-1.146,0.941-1.617C1.641,1.872,2.414,1.19,3.234,0.569z M3.9,1.27
	C3.096,1.879,2.33,2.54,1.645,3.278C1.41,3.567,1.137,3.834,0.994,4.176C0.953,4.262,0.965,4.36,0.967,4.45
	C1.014,5.547,1.379,6.602,1.828,7.59C2.1,8.188,2.422,8.764,2.754,9.331c1.779,2.873,4.102,5.357,6.537,7.681
	c1.199,1.127,2.461,2.213,3.799,3.174c1.24,0.893,2.555,1.699,3.977,2.264c0.852,0.326,1.744,0.592,2.666,0.58
	c0.389-0.121,0.67-0.43,0.979-0.676c0.793-0.734,1.494-1.553,2.129-2.416c0.152-0.221,0.256-0.504,0.164-0.77
	c-0.049-0.156-0.211-0.217-0.33-0.309c-1.492-1-2.984-1.984-4.48-2.965c-0.299-0.244-0.701-0.07-1.002,0.07
	c-0.914,0.492-1.805,1.008-2.703,1.514c-1.592-1.021-2.969-2.342-4.313-3.662C8.85,12.473,7.535,11.1,6.514,9.508
	c0.459-0.797,0.904-1.594,1.35-2.395c0.176-0.301,0.352-0.621,0.371-0.975C8.24,5.967,8.121,5.836,8.029,5.698
	C7.076,4.233,6.111,2.78,5.145,1.327c-0.094-0.123-0.162-0.293-0.32-0.336C4.486,0.887,4.152,1.059,3.9,1.27z"/>
</svg>
