<?xml version="1.0" encoding="utf-8"?>
<!-- Generator: Adobe Illustrator 15.0.0, SVG Export Plug-In . SVG Version: 6.00 Build 0)  -->
<!DOCTYPE svg PUBLIC "-//W3C//DTD SVG 1.1//EN" "http://www.w3.org/Graphics/SVG/1.1/DTD/svg11.dtd">
<svg version="1.1" id="图层_1" xmlns="http://www.w3.org/2000/svg" xmlns:xlink="http://www.w3.org/1999/xlink" x="0px" y="0px"
	 width="26px" height="26px" viewBox="1 1 26 26" enable-background="new 1 1 26 26" xml:space="preserve">
<path fill="#147CFA" d="M14,1C6.821,1,1,6.821,1,14c0,7.18,5.821,13,13,13c7.18,0,13-5.82,13-13C27,6.821,21.18,1,14,1z
	 M22.059,22.971c-0.166,0.148-0.33,0.297-0.502,0.438c-0.145,0.115-0.297,0.225-0.447,0.333c-0.164,0.12-0.323,0.239-0.49,0.35
	c-0.164,0.107-0.334,0.206-0.506,0.308c-0.163,0.098-0.327,0.195-0.494,0.283c-0.176,0.094-0.355,0.174-0.536,0.26
	c-0.174,0.08-0.347,0.162-0.521,0.233c-0.182,0.072-0.367,0.138-0.554,0.202c-0.181,0.063-0.362,0.132-0.545,0.188
	c-0.19,0.057-0.387,0.102-0.581,0.147c-0.183,0.045-0.365,0.095-0.55,0.132c-0.226,0.043-0.455,0.072-0.685,0.104
	c-0.155,0.021-0.313,0.051-0.467,0.065c-0.389,0.036-0.783,0.061-1.182,0.061s-0.792-0.023-1.179-0.061
	c-0.158-0.016-0.314-0.043-0.472-0.065c-0.228-0.03-0.456-0.06-0.679-0.104c-0.187-0.036-0.37-0.088-0.555-0.133
	c-0.193-0.047-0.386-0.092-0.575-0.147c-0.185-0.056-0.368-0.125-0.552-0.188c-0.185-0.063-0.368-0.127-0.547-0.2
	c-0.176-0.071-0.35-0.155-0.524-0.237c-0.178-0.082-0.357-0.164-0.533-0.256c-0.168-0.088-0.333-0.188-0.498-0.285
	c-0.169-0.101-0.34-0.198-0.504-0.305c-0.168-0.109-0.331-0.23-0.494-0.352c-0.149-0.108-0.3-0.217-0.445-0.333
	c-0.171-0.138-0.336-0.288-0.502-0.437c-0.099-0.091-0.2-0.177-0.297-0.271c0.249-4.635,5.439-3.965,6.209-6.372
	c0.062-0.826,0.039-1.397,0.039-2.157c-0.319-0.189-0.917-1.444-1.013-2.5c-0.252-0.02-0.653-0.307-0.768-1.439
	c-0.067-0.609,0.187-0.949,0.334-1.057c-0.844-3.793-0.386-7.108,3.437-7.239c0.031,0,0.06-0.004,0.093-0.004
	c0.964,0.002,1.708,0.307,1.996,0.902c2.844,0.456,1.986,4.905,1.576,6.34c0.152,0.109,0.408,0.45,0.344,1.058
	c-0.115,1.132-0.519,1.42-0.766,1.439c-0.096,1.057-0.674,2.311-0.996,2.5c0,0.76-0.021,1.332,0.04,2.157
	c0.772,2.407,5.94,1.737,6.187,6.372C22.26,22.793,22.158,22.879,22.059,22.971z"/>
</svg>
