<?xml version="1.0" encoding="utf-8"?>
<!-- Generator: Adobe Illustrator 15.0.0, SVG Export Plug-In . SVG Version: 6.00 Build 0)  -->
<!DOCTYPE svg PUBLIC "-//W3C//DTD SVG 1.1//EN" "http://www.w3.org/Graphics/SVG/1.1/DTD/svg11.dtd">
<svg version="1.1" id="图层_1" xmlns="http://www.w3.org/2000/svg" xmlns:xlink="http://www.w3.org/1999/xlink" x="0px" y="0px"
	 width="13px" height="13px" viewBox="2 2 13 13" enable-background="new 2 2 13 13" xml:space="preserve">
<path fill="#AEAEAE" d="M7.186,2C4.318,2,2,4.265,2,7.067c0,2.8,2.318,5.067,5.186,5.067c1.022,0,1.971-0.295,2.772-0.794L13.705,15
	L15,13.734l-3.695-3.604c0.662-0.853,1.066-1.909,1.066-3.064C12.371,4.265,10.051,2,7.186,2z M7.186,3.192
	c2.197,0,3.966,1.728,3.966,3.875c0,2.146-1.771,3.875-3.966,3.875c-2.197,0-3.966-1.729-3.966-3.875
	C3.22,4.92,4.988,3.192,7.186,3.192z"/>
</svg>
