<?xml version="1.0" encoding="utf-8"?>
<!-- Generator: Adobe Illustrator 15.0.0, SVG Export Plug-In . SVG Version: 6.00 Build 0)  -->
<!DOCTYPE svg PUBLIC "-//W3C//DTD SVG 1.1//EN" "http://www.w3.org/Graphics/SVG/1.1/DTD/svg11.dtd">
<svg version="1.1" id="图层_1" xmlns="http://www.w3.org/2000/svg" xmlns:xlink="http://www.w3.org/1999/xlink" x="0px" y="0px"
	 width="20px" height="20px" viewBox="2 2 20 20" enable-background="new 2 2 20 20" xml:space="preserve">
<path d="M9.925,2C5.553,2,2,5.471,2,9.746c0,4.271,3.553,7.746,7.925,7.746c1.729,0,3.33-0.549,4.63-1.471L20.688,22L22,20.717
	l-6.063-5.933c1.188-1.354,1.912-3.117,1.912-5.039C17.85,5.471,14.295,2,9.925,2z M9.925,2.912c3.867,0,6.987,3.054,6.987,6.834
	c0,3.779-3.12,6.832-6.987,6.832c-3.866,0-6.991-3.053-6.991-6.832C2.934,5.966,6.059,2.912,9.925,2.912z"/>
</svg>
