<?xml version="1.0" encoding="utf-8"?>
<!-- Generator: Adobe Illustrator 15.0.0, SVG Export Plug-In . SVG Version: 6.00 Build 0)  -->
<!DOCTYPE svg PUBLIC "-//W3C//DTD SVG 1.1//EN" "http://www.w3.org/Graphics/SVG/1.1/DTD/svg11.dtd">
<svg version="1.1" id="图层_1" xmlns="http://www.w3.org/2000/svg" xmlns:xlink="http://www.w3.org/1999/xlink" x="0px" y="0px"
	 width="24px" height="20px" viewBox="0 2 24 20" enable-background="new 0 2 24 20" xml:space="preserve">
<path d="M20.922,22c-0.057,0-0.082,0-0.139,0l-0.439-0.188c0,0,0,0,0-0.027c-0.139-0.025-0.221-0.08-0.275-0.16
	c-0.026-0.08-0.026-0.188,0.027-0.32c0.027-0.027,0.605-1.07,1.184-2.705c0.55-1.553,1.209-3.936,1.209-6.533
	c0-2.623-0.659-4.979-1.209-6.506c-0.577-1.633-1.153-2.678-1.184-2.73c-0.109-0.295-0.055-0.4,0.221-0.563l0.468-0.213
	C20.84,2.027,20.922,2,20.977,2c0.191,0,0.33,0.135,0.467,0.428c0.027,0.055,0.056,0.107,0.111,0.215
	c0.273,0.508,0.879,1.686,1.428,3.346C23.672,8.076,24,10.166,24,12.199c0,2.518-0.658,4.873-1.209,6.428
	c-0.604,1.686-1.209,2.783-1.236,2.783l-0.027,0.055C21.389,21.76,21.279,22,20.922,22L20.922,22L20.922,22z M5.141,15.359H5.113H0
	V8.721h5.113H5.14l6.816-4.633v15.93L5.141,15.359L5.141,15.359z M18.172,18.68c-0.055,0-0.109,0-0.164,0l-0.439-0.215l0,0
	c-0.139-0.025-0.221-0.08-0.248-0.16c-0.055-0.08-0.055-0.188,0-0.322c0.027-0.024,0.439-0.694,0.824-1.713
	c0.385-0.989,0.824-2.518,0.824-4.203c0-1.74-0.439-3.24-0.824-4.205c-0.385-1.016-0.797-1.66-0.824-1.686
	c-0.108-0.295-0.055-0.402,0.248-0.563l0.412-0.215c0.082-0.027,0.138-0.053,0.22-0.053c0.166,0,0.329,0.133,0.469,0.428
	c0.026,0.08,0.082,0.16,0.138,0.295c0.469,0.83,1.678,3.078,1.678,6.131c0,1.688-0.439,3.213-0.824,4.176
	c-0.439,1.045-0.854,1.715-0.854,1.715l0,0l-0.027,0.053C18.611,18.439,18.502,18.68,18.172,18.68L18.172,18.68L18.172,18.68z
	 M15.863,15.279c-0.055,0-0.109,0-0.166,0l-0.412-0.188c0-0.026,0-0.026,0-0.026c-0.137-0.025-0.219-0.08-0.246-0.16
	c-0.057-0.08-0.057-0.188,0-0.32c0,0,0.551-1.152,0.551-2.518c0-1.418-0.551-2.436-0.578-2.49c-0.109-0.295-0.057-0.428,0.248-0.563
	L15.672,8.8c0.082-0.027,0.137-0.055,0.219-0.055c0.166,0,0.33,0.135,0.469,0.428c0.027,0.082,0.082,0.162,0.109,0.242
	c0.273,0.508,0.633,1.203,0.633,2.783c0,0.883-0.578,2.436-0.604,2.489l-0.024,0.054C16.303,15.039,16.193,15.279,15.863,15.279
	L15.863,15.279L15.863,15.279z"/>
</svg>
