<svg version="1.1" xmlns="http://www.w3.org/2000/svg" xmlns:xlink="http://www.w3.org/1999/xlink" x="0px" y="0px"
	 width="25px" height="25px" viewBox="0 0 25 25" enable-background="new 0 0 25 25">
<path fill="#1B7DFA" d="M12.5,0C5.601,0,0,5.601,0,12.5C0,19.4,5.601,25,12.5,25C19.4,25,25,19.4,25,12.5C25,5.601,19.4,0,12.5,0z
	 M12.5,23.501c-6.065,0-10.999-4.937-10.999-11.001c0-6.065,4.934-10.999,10.999-10.999c6.064,0,11.001,4.934,11.001,10.999
	C23.501,18.564,18.564,23.501,12.5,23.501z M8.75,7.499h2.5v10.002h-2.5V7.499z M13.749,7.499h2.503v10.002h-2.503V7.499z"/>
</svg>
