<?xml version="1.0" encoding="utf-8"?>
<!-- Generator: Adobe Illustrator 15.0.0, SVG Export Plug-In . SVG Version: 6.00 Build 0)  -->
<!DOCTYPE svg PUBLIC "-//W3C//DTD SVG 1.1//EN" "http://www.w3.org/Graphics/SVG/1.1/DTD/svg11.dtd">
<svg version="1.1" id="图层_1" xmlns="http://www.w3.org/2000/svg" xmlns:xlink="http://www.w3.org/1999/xlink" x="0px" y="0px"
	 width="15.999px" height="24px" viewBox="4 0 15.999 24" enable-background="new 4 0 15.999 24" xml:space="preserve">
<path d="M18.716,3.369l-0.944,18.816c0,0.984-0.648,1.814-1.447,1.814H7.675c-0.796,0-1.447-0.83-1.447-1.852L5.283,3.367H4V2.369
	h1.324h3.099V1.854C8.423,0.832,9.074,0,9.871,0h4.257c0.799,0,1.447,0.832,1.447,1.854V2.37h3.102h1.322v0.998L18.716,3.369
	L18.716,3.369z M14.876,1.855c0-0.47-0.338-0.855-0.748-0.855H9.871c-0.414,0-0.75,0.385-0.75,0.855v0.516h5.753V1.855H14.876z
	 M15.573,3.369h-7.15H5.992l0.934,18.745c0,0.508,0.335,0.893,0.75,0.893h8.646c0.414,0,0.748-0.385,0.748-0.854L18.016,3.37
	L15.573,3.369L15.573,3.369z M14.003,20.303L14.788,5.96l0.7,0.078l-0.79,14.342L14.003,20.303z M11.65,5.998h0.699v14.375H11.65
	V5.998L11.65,5.998z M8.511,6.037l0.697-0.078l0.787,14.344L9.3,20.381L8.511,6.037z"/>
</svg>
